<svg aria-roledescription="mindmap" role="graphics-document document" viewBox="-13.517187118530273 -41.65031433105469 1113.5145263671875 552.9071044921875" style="max-width: 1113.51px; background-color: white;" xmlns:xlink="http://www.w3.org/1999/xlink" xmlns="http://www.w3.org/2000/svg" width="100%" id="my-svg"><style>#my-svg{font-family:"trebuchet ms",verdana,arial,sans-serif;font-size:16px;fill:#333;}#my-svg .error-icon{fill:#552222;}#my-svg .error-text{fill:#552222;stroke:#552222;}#my-svg .edge-thickness-normal{stroke-width:2px;}#my-svg .edge-thickness-thick{stroke-width:3.5px;}#my-svg .edge-pattern-solid{stroke-dasharray:0;}#my-svg .edge-pattern-dashed{stroke-dasharray:3;}#my-svg .edge-pattern-dotted{stroke-dasharray:2;}#my-svg .marker{fill:#333333;stroke:#333333;}#my-svg .marker.cross{stroke:#333333;}#my-svg svg{font-family:"trebuchet ms",verdana,arial,sans-serif;font-size:16px;}#my-svg .edge{stroke-width:3;}#my-svg .section--1 rect,#my-svg .section--1 path,#my-svg .section--1 circle,#my-svg .section--1 polygon,#my-svg .section--1 path{fill:hsl(240, 100%, 76.2745098039%);}#my-svg .section--1 text{fill:#ffffff;}#my-svg .node-icon--1{font-size:40px;color:#ffffff;}#my-svg .section-edge--1{stroke:hsl(240, 100%, 76.2745098039%);}#my-svg .edge-depth--1{stroke-width:17;}#my-svg .section--1 line{stroke:hsl(60, 100%, 86.2745098039%);stroke-width:3;}#my-svg .disabled,#my-svg .disabled circle,#my-svg .disabled text{fill:lightgray;}#my-svg .disabled text{fill:#efefef;}#my-svg .section-0 rect,#my-svg .section-0 path,#my-svg .section-0 circle,#my-svg .section-0 polygon,#my-svg .section-0 path{fill:hsl(60, 100%, 73.5294117647%);}#my-svg .section-0 text{fill:black;}#my-svg .node-icon-0{font-size:40px;color:black;}#my-svg .section-edge-0{stroke:hsl(60, 100%, 73.5294117647%);}#my-svg .edge-depth-0{stroke-width:14;}#my-svg .section-0 line{stroke:hsl(240, 100%, 83.5294117647%);stroke-width:3;}#my-svg .disabled,#my-svg .disabled circle,#my-svg .disabled text{fill:lightgray;}#my-svg .disabled text{fill:#efefef;}#my-svg .section-1 rect,#my-svg .section-1 path,#my-svg .section-1 circle,#my-svg .section-1 polygon,#my-svg .section-1 path{fill:hsl(80, 100%, 76.2745098039%);}#my-svg .section-1 text{fill:black;}#my-svg .node-icon-1{font-size:40px;color:black;}#my-svg .section-edge-1{stroke:hsl(80, 100%, 76.2745098039%);}#my-svg .edge-depth-1{stroke-width:11;}#my-svg .section-1 line{stroke:hsl(260, 100%, 86.2745098039%);stroke-width:3;}#my-svg .disabled,#my-svg .disabled circle,#my-svg .disabled text{fill:lightgray;}#my-svg .disabled text{fill:#efefef;}#my-svg .section-2 rect,#my-svg .section-2 path,#my-svg .section-2 circle,#my-svg .section-2 polygon,#my-svg .section-2 path{fill:hsl(270, 100%, 76.2745098039%);}#my-svg .section-2 text{fill:#ffffff;}#my-svg .node-icon-2{font-size:40px;color:#ffffff;}#my-svg .section-edge-2{stroke:hsl(270, 100%, 76.2745098039%);}#my-svg .edge-depth-2{stroke-width:8;}#my-svg .section-2 line{stroke:hsl(90, 100%, 86.2745098039%);stroke-width:3;}#my-svg .disabled,#my-svg .disabled circle,#my-svg .disabled text{fill:lightgray;}#my-svg .disabled text{fill:#efefef;}#my-svg .section-3 rect,#my-svg .section-3 path,#my-svg .section-3 circle,#my-svg .section-3 polygon,#my-svg .section-3 path{fill:hsl(300, 100%, 76.2745098039%);}#my-svg .section-3 text{fill:black;}#my-svg .node-icon-3{font-size:40px;color:black;}#my-svg .section-edge-3{stroke:hsl(300, 100%, 76.2745098039%);}#my-svg .edge-depth-3{stroke-width:5;}#my-svg .section-3 line{stroke:hsl(120, 100%, 86.2745098039%);stroke-width:3;}#my-svg .disabled,#my-svg .disabled circle,#my-svg .disabled text{fill:lightgray;}#my-svg .disabled text{fill:#efefef;}#my-svg .section-4 rect,#my-svg .section-4 path,#my-svg .section-4 circle,#my-svg .section-4 polygon,#my-svg .section-4 path{fill:hsl(330, 100%, 76.2745098039%);}#my-svg .section-4 text{fill:black;}#my-svg .node-icon-4{font-size:40px;color:black;}#my-svg .section-edge-4{stroke:hsl(330, 100%, 76.2745098039%);}#my-svg .edge-depth-4{stroke-width:2;}#my-svg .section-4 line{stroke:hsl(150, 100%, 86.2745098039%);stroke-width:3;}#my-svg .disabled,#my-svg .disabled circle,#my-svg .disabled text{fill:lightgray;}#my-svg .disabled text{fill:#efefef;}#my-svg .section-5 rect,#my-svg .section-5 path,#my-svg .section-5 circle,#my-svg .section-5 polygon,#my-svg .section-5 path{fill:hsl(0, 100%, 76.2745098039%);}#my-svg .section-5 text{fill:black;}#my-svg .node-icon-5{font-size:40px;color:black;}#my-svg .section-edge-5{stroke:hsl(0, 100%, 76.2745098039%);}#my-svg .edge-depth-5{stroke-width:-1;}#my-svg .section-5 line{stroke:hsl(180, 100%, 86.2745098039%);stroke-width:3;}#my-svg .disabled,#my-svg .disabled circle,#my-svg .disabled text{fill:lightgray;}#my-svg .disabled text{fill:#efefef;}#my-svg .section-6 rect,#my-svg .section-6 path,#my-svg .section-6 circle,#my-svg .section-6 polygon,#my-svg .section-6 path{fill:hsl(30, 100%, 76.2745098039%);}#my-svg .section-6 text{fill:black;}#my-svg .node-icon-6{font-size:40px;color:black;}#my-svg .section-edge-6{stroke:hsl(30, 100%, 76.2745098039%);}#my-svg .edge-depth-6{stroke-width:-4;}#my-svg .section-6 line{stroke:hsl(210, 100%, 86.2745098039%);stroke-width:3;}#my-svg .disabled,#my-svg .disabled circle,#my-svg .disabled text{fill:lightgray;}#my-svg .disabled text{fill:#efefef;}#my-svg .section-7 rect,#my-svg .section-7 path,#my-svg .section-7 circle,#my-svg .section-7 polygon,#my-svg .section-7 path{fill:hsl(90, 100%, 76.2745098039%);}#my-svg .section-7 text{fill:black;}#my-svg .node-icon-7{font-size:40px;color:black;}#my-svg .section-edge-7{stroke:hsl(90, 100%, 76.2745098039%);}#my-svg .edge-depth-7{stroke-width:-7;}#my-svg .section-7 line{stroke:hsl(270, 100%, 86.2745098039%);stroke-width:3;}#my-svg .disabled,#my-svg .disabled circle,#my-svg .disabled text{fill:lightgray;}#my-svg .disabled text{fill:#efefef;}#my-svg .section-8 rect,#my-svg .section-8 path,#my-svg .section-8 circle,#my-svg .section-8 polygon,#my-svg .section-8 path{fill:hsl(150, 100%, 76.2745098039%);}#my-svg .section-8 text{fill:black;}#my-svg .node-icon-8{font-size:40px;color:black;}#my-svg .section-edge-8{stroke:hsl(150, 100%, 76.2745098039%);}#my-svg .edge-depth-8{stroke-width:-10;}#my-svg .section-8 line{stroke:hsl(330, 100%, 86.2745098039%);stroke-width:3;}#my-svg .disabled,#my-svg .disabled circle,#my-svg .disabled text{fill:lightgray;}#my-svg .disabled text{fill:#efefef;}#my-svg .section-9 rect,#my-svg .section-9 path,#my-svg .section-9 circle,#my-svg .section-9 polygon,#my-svg .section-9 path{fill:hsl(180, 100%, 76.2745098039%);}#my-svg .section-9 text{fill:black;}#my-svg .node-icon-9{font-size:40px;color:black;}#my-svg .section-edge-9{stroke:hsl(180, 100%, 76.2745098039%);}#my-svg .edge-depth-9{stroke-width:-13;}#my-svg .section-9 line{stroke:hsl(0, 100%, 86.2745098039%);stroke-width:3;}#my-svg .disabled,#my-svg .disabled circle,#my-svg .disabled text{fill:lightgray;}#my-svg .disabled text{fill:#efefef;}#my-svg .section-10 rect,#my-svg .section-10 path,#my-svg .section-10 circle,#my-svg .section-10 polygon,#my-svg .section-10 path{fill:hsl(210, 100%, 76.2745098039%);}#my-svg .section-10 text{fill:black;}#my-svg .node-icon-10{font-size:40px;color:black;}#my-svg .section-edge-10{stroke:hsl(210, 100%, 76.2745098039%);}#my-svg .edge-depth-10{stroke-width:-16;}#my-svg .section-10 line{stroke:hsl(30, 100%, 86.2745098039%);stroke-width:3;}#my-svg .disabled,#my-svg .disabled circle,#my-svg .disabled text{fill:lightgray;}#my-svg .disabled text{fill:#efefef;}#my-svg .section-root rect,#my-svg .section-root path,#my-svg .section-root circle,#my-svg .section-root polygon{fill:hsl(240, 100%, 46.2745098039%);}#my-svg .section-root text{fill:#ffffff;}#my-svg .icon-container{height:100%;display:flex;justify-content:center;align-items:center;}#my-svg .edge{fill:none;}#my-svg .mindmap-node-label{dy:1em;alignment-baseline:middle;text-anchor:middle;dominant-baseline:middle;text-align:center;}#my-svg :root{--mermaid-font-family:"trebuchet ms",verdana,arial,sans-serif;}</style><g/><g class="mindmap-edges"><path class="edge section-edge-0 edge-depth-1" d="M 466.5606375682649,352.0332153970029 L 458.3301019823321,382.91255645810145 L450.0995663963993,413.7918975192"/><path class="edge section-edge-0 edge-depth-0" d="M 518.5931588225877,243.13104979136892 L 497.9171343297264,283.65447922277775 L477.2411098368651,324.1779086541866"/><path class="edge section-edge-1 edge-depth-1" d="M 329.99555802145187,162.7672684098264 L 266.2465779044099,134.37309400733082 L202.49759778736788,105.97891960483523"/><path class="edge section-edge-1 edge-depth-0" d="M 511.18790795030884,225.00317717761445 L 434.5541309584008,199.32003711201563 L357.9203539664927,173.6368970464168"/><path class="edge section-edge-2 edge-depth-1" d="M 759.1165000062883,261.11026750569005 L 854.9982006524847,277.1343806014036 L950.8799012986808,293.1584936971172"/><path class="edge section-edge-2 edge-depth-0" d="M 540.2816773771933,231.7308111949017 L 634.8660569865128,244.2037159691708 L729.4504365958323,256.6766207434399"/><path class="edge section-edge-3 edge-depth-1" d="M 631.2643573139554,311.42719783040957 L 662.9659064584529,338.6009409895559 L694.6674556029503,365.77468414870225"/><path class="edge section-edge-3 edge-depth-0" d="M 537.346658278077,238.8541294412277 L 572.6430540453368,265.7174260646252 L607.9394498125966,292.5807226880227"/><path class="edge section-edge-4 edge-depth-1" d="M 626.7959833546901,145.71651292648033 L 660.0713799037326,118.68919158452027 L693.3467764527751,91.66187024256021"/><path class="edge section-edge-4 edge-depth-0" d="M 536.9456860210371,220.18131201073788 L 570.2815837420693,192.47162376159588 L603.6174814631015,164.76193551245393"/><path class="edge section-edge-5 edge-depth-1" d="M 317.3029302766783,232.34154413725747 L 219.93056617941352,238.27114357756633 L122.55820208214874,244.2007430178752"/><path class="edge section-edge-5 edge-depth-0" d="M 510.41097872005525,229.89865451460585 L 428.8428097555942,230.59976026247406 L347.27464079113315,231.30086601034228"/><path class="edge section-edge-6 edge-depth-1" d="M 745.618934680961,195.83349847771063 L 840.6895427691484,177.55199942015796 L935.7601508573357,159.27050036260528"/><path class="edge section-edge-6 edge-depth-0" d="M 540.2414710726191,227.52472099173997 L 628.1496124919016,214.2178714362759 L716.0577539111841,200.91102188081192"/><path class="edge section-edge-7 edge-depth-1" d="M 457.4483447051685,109.82829588521932 L 447.93986518260607,79.03038136889765 L438.43138566004365,48.23246685257598"/><path class="edge section-edge-7 edge-depth-0" d="M 517.6776262030255,216.91656512053146 L 493.6418716233485,176.96524599395389 L469.6061170436714,137.01392686737637"/><path class="edge section-edge-8 edge-depth-1" d="M 338.5012831141468,300.1608208206254 L 292.44473212365125,325.07662487599225 L246.38818113315568,349.9924289313591"/><path class="edge section-edge-8 edge-depth-0" d="M 511.31572317784145,234.90192082332626 L 438.5524318273331,261.3966395219423 L365.7891404768248,287.89135822055835"/></g><g class="mindmap-nodes"><g transform="translate(472.09792465236137, 210.86972925011253)" class="mindmap-node section--1 section-root"><g transform="translate(53.3125, 18.9)"><circle r="53.3125" class="node-bkg node-circle" id="node-0"/></g><g transform="translate(53.3125, 5)" text-anchor="middle" dominant-baseline="middle" alignment-baseline="middle" dy="1em"><g><rect class="background"/><text y="-10.1"><tspan dy="1.1em" y="-0.1em" x="0" class="text-outer-tspan"><tspan font-weight="normal" class="text-inner-tspan" font-style="normal">iCal4j</tspan><tspan font-weight="normal" class="text-inner-tspan" font-style="normal"> Core</tspan></tspan></text></g></g></g><g transform="translate(412.1816565070915, 318.639229195443)" class="mindmap-node section-0"><g><path d="M0 32.8 v-27.799999999999997 q0,-5 5,-5 h106.484375 q5,0 5,5 v32.8 H0 Z" class="node-bkg node-no-border" id="node-1"/><line y2="37.8" x2="116.484375" y1="37.8" x1="0" class="node-line-0"/></g><g transform="translate(58.2421875, 5)" text-anchor="middle" dominant-baseline="middle" alignment-baseline="middle" dy="1em"><g><rect class="background"/><text y="-10.1"><tspan dy="1.1em" y="-0.1em" x="0" class="text-outer-tspan"><tspan font-weight="normal" class="text-inner-tspan" font-style="normal">iCal4j</tspan><tspan font-weight="normal" class="text-inner-tspan" font-style="normal"> vCard</tspan></tspan></text></g></g></g><g transform="translate(340.23635995757274, 409.3858837207599)" class="mindmap-node section-0"><g><path d="M0 0 a31.799999999999997,31.799999999999997 0 0,1 53,-21.200000000000003&#10;      a74.19999999999999,74.19999999999999 1 0,1 84.80000000000001,-21.200000000000003&#10;      a53,53 1 0,1 74.19999999999999,42.400000000000006&#10;&#10;      a31.799999999999997,31.799999999999997 1 0,1 31.799999999999997,13.229999999999999&#10;      a42.400000000000006,42.400000000000006 1 0,1 -31.799999999999997,24.57&#10;&#10;      a53,31.799999999999997 1 0,1 -53,31.799999999999997&#10;      a74.19999999999999,74.19999999999999 1 0,1 -106,0&#10;      a31.799999999999997,31.799999999999997 1 0,1 -53,-31.799999999999997&#10;&#10;      a31.799999999999997,31.799999999999997 1 0,1 -21.200000000000003,-13.229999999999999&#10;      a42.400000000000006,42.400000000000006 1 0,1 21.200000000000003,-24.57&#10;&#10;    H0 V0 Z" class="node-bkg node-cloud" id="node-2"/></g><g transform="translate(106, 5)" text-anchor="middle" dominant-baseline="middle" alignment-baseline="middle" dy="1em"><g><rect class="background"/><text y="-10.1"><tspan dy="1.1em" y="-0.1em" x="0" class="text-outer-tspan"><tspan font-weight="normal" class="text-inner-tspan" font-style="normal">vCard</tspan><tspan font-weight="normal" class="text-inner-tspan" font-style="normal"> Model</tspan><tspan font-weight="normal" class="text-inner-tspan" font-style="normal"> Extensions</tspan></tspan></text></g></g></g><g transform="translate(265.4634622644402, 149.9703449739187)" class="mindmap-node section-1"><g><path d="M0 32.8 v-27.799999999999997 q0,-5 5,-5 h146.46875 q5,0 5,5 v32.8 H0 Z" class="node-bkg node-no-border" id="node-3"/><line y2="37.8" x2="156.46875" y1="37.8" x1="0" class="node-line-1"/></g><g transform="translate(78.234375, 5)" text-anchor="middle" dominant-baseline="middle" alignment-baseline="middle" dy="1em"><g><rect class="background"/><text y="-10.1"><tspan dy="1.1em" y="-0.1em" x="0" class="text-outer-tspan"><tspan font-weight="normal" class="text-inner-tspan" font-style="normal">iCal4j</tspan><tspan font-weight="normal" class="text-inner-tspan" font-style="normal"> Extensions</tspan></tspan></text></g></g></g><g transform="translate(93.7796935443796, 72.17584380368237)" class="mindmap-node section-1"><g><path d="M0 0 a28.5046875,28.5046875 0 0,1 47.5078125,-19.003125&#10;      a66.5109375,66.5109375 1 0,1 76.0125,-19.003125&#10;      a47.5078125,47.5078125 1 0,1 66.5109375,38.00625&#10;&#10;      a28.5046875,28.5046875 1 0,1 28.5046875,19.38999946594238&#10;      a38.00625,38.00625 1 0,1 -28.5046875,36.00999900817871&#10;&#10;      a47.5078125,28.5046875 1 0,1 -47.5078125,28.5046875&#10;      a66.5109375,66.5109375 1 0,1 -95.015625,0&#10;      a28.5046875,28.5046875 1 0,1 -47.5078125,-28.5046875&#10;&#10;      a28.5046875,28.5046875 1 0,1 -19.003125,-19.38999946594238&#10;      a38.00625,38.00625 1 0,1 19.003125,-36.00999900817871&#10;&#10;    H0 V0 Z" class="node-bkg node-cloud" id="node-4"/></g><g transform="translate(95.015625, 5)" text-anchor="middle" dominant-baseline="middle" alignment-baseline="middle" dy="1em"><g><rect class="background"/><text y="-10.1"><tspan dy="1.1em" y="-0.1em" x="0" class="text-outer-tspan"><tspan font-weight="normal" class="text-inner-tspan" font-style="normal">Strategies</tspan><tspan font-weight="normal" class="text-inner-tspan" font-style="normal"> and</tspan><tspan font-weight="normal" class="text-inner-tspan" font-style="normal"> Model</tspan></tspan><tspan dy="1.1em" y="1em" x="0" class="text-outer-tspan"><tspan font-weight="normal" class="text-inner-tspan" font-style="normal">Extensions</tspan></tspan></text></g></g></g><g transform="translate(672.0482518206643, 239.73770268822906)" class="mindmap-node section-2"><g><path d="M0 32.8 v-27.799999999999997 q0,-5 5,-5 h134.546875 q5,0 5,5 v32.8 H0 Z" class="node-bkg node-no-border" id="node-5"/><line y2="37.8" x2="144.546875" y1="37.8" x1="0" class="node-line-2"/></g><g transform="translate(72.2734375, 5)" text-anchor="middle" dominant-baseline="middle" alignment-baseline="middle" dy="1em"><g><rect class="background"/><text y="-10.1"><tspan dy="1.1em" y="-0.1em" x="0" class="text-outer-tspan"><tspan font-weight="normal" class="text-inner-tspan" font-style="normal">iCal4j</tspan><tspan font-weight="normal" class="text-inner-tspan" font-style="normal"> Serializer</tspan></tspan></text></g></g></g><g transform="translate(870.0418994843048, 276.7310585145782)" class="mindmap-node section-2"><g><path d="M0 0 a28.689843749999998,28.689843749999998 0 0,1 47.81640625,-19.126562500000002&#10;      a66.94296874999999,66.94296874999999 1 0,1 76.50625000000001,-19.126562500000002&#10;      a47.81640625,47.81640625 1 0,1 66.94296874999999,38.253125000000004&#10;&#10;      a28.689843749999998,28.689843749999998 1 0,1 28.689843749999998,13.229999999999999&#10;      a38.253125000000004,38.253125000000004 1 0,1 -28.689843749999998,24.57&#10;&#10;      a47.81640625,28.689843749999998 1 0,1 -47.81640625,28.689843749999998&#10;      a66.94296874999999,66.94296874999999 1 0,1 -95.6328125,0&#10;      a28.689843749999998,28.689843749999998 1 0,1 -47.81640625,-28.689843749999998&#10;&#10;      a28.689843749999998,28.689843749999998 1 0,1 -19.126562500000002,-13.229999999999999&#10;      a38.253125000000004,38.253125000000004 1 0,1 19.126562500000002,-24.57&#10;&#10;    H0 V0 Z" class="node-bkg node-cloud" id="node-6"/></g><g transform="translate(95.6328125, 5)" text-anchor="middle" dominant-baseline="middle" alignment-baseline="middle" dy="1em"><g><rect class="background"/><text y="-10.1"><tspan dy="1.1em" y="-0.1em" x="0" class="text-outer-tspan"><tspan font-weight="normal" class="text-inner-tspan" font-style="normal">XML/JSON</tspan><tspan font-weight="normal" class="text-inner-tspan" font-style="normal"> Marshaling</tspan></tspan></text></g></g></g><g transform="translate(543.6100584383123, 282.76512287913795)" class="mindmap-node section-3"><g><path d="M0 32.8 v-27.799999999999997 q0,-5 5,-5 h142.53125 q5,0 5,5 v32.8 H0 Z" class="node-bkg node-no-border" id="node-7"/><line y2="37.8" x2="152.53125" y1="37.8" x1="0" class="node-line-3"/></g><g transform="translate(76.265625, 5)" text-anchor="middle" dominant-baseline="middle" alignment-baseline="middle" dy="1em"><g><rect class="background"/><text y="-10.1"><tspan dy="1.1em" y="-0.1em" x="0" class="text-outer-tspan"><tspan font-weight="normal" class="text-inner-tspan" font-style="normal">iCal4j</tspan><tspan font-weight="normal" class="text-inner-tspan" font-style="normal"> Connector</tspan></tspan></text></g></g></g><g transform="translate(622.2201919785934, 356.6367590999739)" class="mindmap-node section-3"><g><path d="M0 0 a25.150781249999998,25.150781249999998 0 0,1 41.91796875,-16.767187500000002&#10;      a58.68515625,58.68515625 1 0,1 67.06875000000001,-16.767187500000002&#10;      a41.91796875,41.91796875 1 0,1 58.68515625,33.534375000000004&#10;&#10;      a25.150781249999998,25.150781249999998 1 0,1 25.150781249999998,13.229999999999999&#10;      a33.534375000000004,33.534375000000004 1 0,1 -25.150781249999998,24.57&#10;&#10;      a41.91796875,25.150781249999998 1 0,1 -41.91796875,25.150781249999998&#10;      a58.68515625,58.68515625 1 0,1 -83.8359375,0&#10;      a25.150781249999998,25.150781249999998 1 0,1 -41.91796875,-25.150781249999998&#10;&#10;      a25.150781249999998,25.150781249999998 1 0,1 -16.767187500000002,-13.229999999999999&#10;      a33.534375000000004,33.534375000000004 1 0,1 16.767187500000002,-24.57&#10;&#10;    H0 V0 Z" class="node-bkg node-cloud" id="node-8"/></g><g transform="translate(83.8359375, 5)" text-anchor="middle" dominant-baseline="middle" alignment-baseline="middle" dy="1em"><g><rect class="background"/><text y="-10.1"><tspan dy="1.1em" y="-0.1em" x="0" class="text-outer-tspan"><tspan font-weight="normal" class="text-inner-tspan" font-style="normal">Storage</tspan><tspan font-weight="normal" class="text-inner-tspan" font-style="normal"> Interfaces</tspan></tspan></text></g></g></g><g transform="translate(536.2777428317772, 136.27351827307928)" class="mindmap-node section-4"><g><path d="M0 32.8 v-27.799999999999997 q0,-5 5,-5 h147.75 q5,0 5,5 v32.8 H0 Z" class="node-bkg node-no-border" id="node-9"/><line y2="37.8" x2="157.75" y1="37.8" x1="0" class="node-line-4"/></g><g transform="translate(78.875, 5)" text-anchor="middle" dominant-baseline="middle" alignment-baseline="middle" dy="1em"><g><rect class="background"/><text y="-10.1"><tspan dy="1.1em" y="-0.1em" x="0" class="text-outer-tspan"><tspan font-weight="normal" class="text-inner-tspan" font-style="normal">iCal4j</tspan><tspan font-weight="normal" class="text-inner-tspan" font-style="normal"> Integration</tspan></tspan></text></g></g></g><g transform="translate(610.1462669756879, 63.304864895961266)" class="mindmap-node section-4"><g><path d="M0 0 a28.453125,28.453125 0 0,1 47.421875,-18.96875&#10;      a66.390625,66.390625 1 0,1 75.875,-18.96875&#10;      a47.421875,47.421875 1 0,1 66.390625,37.9375&#10;&#10;      a28.453125,28.453125 1 0,1 28.453125,13.229999999999999&#10;      a37.9375,37.9375 1 0,1 -28.453125,24.57&#10;&#10;      a47.421875,28.453125 1 0,1 -47.421875,28.453125&#10;      a66.390625,66.390625 1 0,1 -94.84375,0&#10;      a28.453125,28.453125 1 0,1 -47.421875,-28.453125&#10;&#10;      a28.453125,28.453125 1 0,1 -18.96875,-13.229999999999999&#10;      a37.9375,37.9375 1 0,1 18.96875,-24.57&#10;&#10;    H0 V0 Z" class="node-bkg node-cloud" id="node-10"/></g><g transform="translate(94.84375, 5)" text-anchor="middle" dominant-baseline="middle" alignment-baseline="middle" dy="1em"><g><rect class="background"/><text y="-10.1"><tspan dy="1.1em" y="-0.1em" x="0" class="text-outer-tspan"><tspan font-weight="normal" class="text-inner-tspan" font-style="normal">Email</tspan><tspan font-weight="normal" class="text-inner-tspan" font-style="normal"> and</tspan><tspan font-weight="normal" class="text-inner-tspan" font-style="normal"> Messaging</tspan></tspan></text></g></g></g><g transform="translate(256.36113235882704, 212.5297912748356)" class="mindmap-node section-5"><g><path d="M0 32.8 v-27.799999999999997 q0,-5 5,-5 h141.828125 q5,0 5,5 v32.8 H0 Z" class="node-bkg node-no-border" id="node-11"/><line y2="37.8" x2="151.828125" y1="37.8" x1="0" class="node-line-5"/></g><g transform="translate(75.9140625, 5)" text-anchor="middle" dominant-baseline="middle" alignment-baseline="middle" dy="1em"><g><rect class="background"/><text y="-10.1"><tspan dy="1.1em" y="-0.1em" x="0" class="text-outer-tspan"><tspan font-weight="normal" class="text-inner-tspan" font-style="normal">iCal4j</tspan><tspan font-weight="normal" class="text-inner-tspan" font-style="normal"> Command</tspan></tspan></text></g></g></g><g transform="translate(15, 226.21249588029707)" class="mindmap-node section-5"><g><path d="M0 0 a27.775781249999998,27.775781249999998 0 0,1 46.29296875,-18.517187500000002&#10;      a64.81015624999999,64.81015624999999 1 0,1 74.06875000000001,-18.517187500000002&#10;      a46.29296875,46.29296875 1 0,1 64.81015624999999,37.034375000000004&#10;&#10;      a27.775781249999998,27.775781249999998 1 0,1 27.775781249999998,13.229999999999999&#10;      a37.034375000000004,37.034375000000004 1 0,1 -27.775781249999998,24.57&#10;&#10;      a46.29296875,27.775781249999998 1 0,1 -46.29296875,27.775781249999998&#10;      a64.81015624999999,64.81015624999999 1 0,1 -92.5859375,0&#10;      a27.775781249999998,27.775781249999998 1 0,1 -46.29296875,-27.775781249999998&#10;&#10;      a27.775781249999998,27.775781249999998 1 0,1 -18.517187500000002,-13.229999999999999&#10;      a37.034375000000004,37.034375000000004 1 0,1 18.517187500000002,-24.57&#10;&#10;    H0 V0 Z" class="node-bkg node-cloud" id="node-12"/></g><g transform="translate(92.5859375, 5)" text-anchor="middle" dominant-baseline="middle" alignment-baseline="middle" dy="1em"><g><rect class="background"/><text y="-10.1"><tspan dy="1.1em" y="-0.1em" x="0" class="text-outer-tspan"><tspan font-weight="normal" class="text-inner-tspan" font-style="normal">Command</tspan><tspan font-weight="normal" class="text-inner-tspan" font-style="normal"> Line</tspan><tspan font-weight="normal" class="text-inner-tspan" font-style="normal"> Tools</tspan></tspan></text></g></g></g><g transform="translate(662.9825503314419, 179.76601362243935)" class="mindmap-node section-6"><g><path d="M0 32.8 v-27.799999999999997 q0,-5 5,-5 h125.8125 q5,0 5,5 v32.8 H0 Z" class="node-bkg node-no-border" id="node-13"/><line y2="37.8" x2="135.8125" y1="37.8" x1="0" class="node-line-6"/></g><g transform="translate(67.90625, 5)" text-anchor="middle" dominant-baseline="middle" alignment-baseline="middle" dy="1em"><g><rect class="background"/><text y="-10.1"><tspan dy="1.1em" y="-0.1em" x="0" class="text-outer-tspan"><tspan font-weight="normal" class="text-inner-tspan" font-style="normal">iCal4j</tspan><tspan font-weight="normal" class="text-inner-tspan" font-style="normal"> Streams</tspan></tspan></text></g></g></g><g transform="translate(849.7402852068549, 137.53798521787655)" class="mindmap-node section-6"><g><path d="M0 0 a30.224999999999998,30.224999999999998 0 0,1 50.375,-20.150000000000002&#10;      a70.52499999999999,70.52499999999999 1 0,1 80.60000000000001,-20.150000000000002&#10;      a50.375,50.375 1 0,1 70.52499999999999,40.300000000000004&#10;&#10;      a30.224999999999998,30.224999999999998 1 0,1 30.224999999999998,13.229999999999999&#10;      a40.300000000000004,40.300000000000004 1 0,1 -30.224999999999998,24.57&#10;&#10;      a50.375,30.224999999999998 1 0,1 -50.375,30.224999999999998&#10;      a70.52499999999999,70.52499999999999 1 0,1 -100.75,0&#10;      a30.224999999999998,30.224999999999998 1 0,1 -50.375,-30.224999999999998&#10;&#10;      a30.224999999999998,30.224999999999998 1 0,1 -20.150000000000002,-13.229999999999999&#10;      a40.300000000000004,40.300000000000004 1 0,1 20.150000000000002,-24.57&#10;&#10;    H0 V0 Z" class="node-bkg node-cloud" id="node-14"/></g><g transform="translate(100.75, 5)" text-anchor="middle" dominant-baseline="middle" alignment-baseline="middle" dy="1em"><g><rect class="background"/><text y="-10.1"><tspan dy="1.1em" y="-0.1em" x="0" class="text-outer-tspan"><tspan font-weight="normal" class="text-inner-tspan" font-style="normal">Data-driven</tspan><tspan font-weight="normal" class="text-inner-tspan" font-style="normal"> Workflows</tspan></tspan></text></g></g></g><g transform="translate(402.5373810943356, 105.26076273779529)" class="mindmap-node section-7"><g><path d="M0 32.8 v-27.799999999999997 q0,-5 5,-5 h108.671875 q5,0 5,5 v32.8 H0 Z" class="node-bkg node-no-border" id="node-15"/><line y2="37.8" x2="118.671875" y1="37.8" x1="0" class="node-line-7"/></g><g transform="translate(59.3359375, 5)" text-anchor="middle" dominant-baseline="middle" alignment-baseline="middle" dy="1em"><g><rect class="background"/><text y="-10.1"><tspan dy="1.1em" y="-0.1em" x="0" class="text-outer-tspan"><tspan font-weight="normal" class="text-inner-tspan" font-style="normal">iCal4j</tspan><tspan font-weight="normal" class="text-inner-tspan" font-style="normal"> Graph</tspan></tspan></text></g></g></g><g transform="translate(330.6157867708765, 15)" class="mindmap-node section-7"><g><path d="M0 0 a31.0171875,31.0171875 0 0,1 51.6953125,-20.678125&#10;      a72.3734375,72.3734375 1 0,1 82.7125,-20.678125&#10;      a51.6953125,51.6953125 1 0,1 72.3734375,41.35625&#10;&#10;      a31.0171875,31.0171875 1 0,1 31.0171875,13.229999999999999&#10;      a41.35625,41.35625 1 0,1 -31.0171875,24.57&#10;&#10;      a51.6953125,31.0171875 1 0,1 -51.6953125,31.0171875&#10;      a72.3734375,72.3734375 1 0,1 -103.390625,0&#10;      a31.0171875,31.0171875 1 0,1 -51.6953125,-31.0171875&#10;&#10;      a31.0171875,31.0171875 1 0,1 -20.678125,-13.229999999999999&#10;      a41.35625,41.35625 1 0,1 20.678125,-24.57&#10;&#10;    H0 V0 Z" class="node-bkg node-cloud" id="node-16"/></g><g transform="translate(103.390625, 5)" text-anchor="middle" dominant-baseline="middle" alignment-baseline="middle" dy="1em"><g><rect class="background"/><text y="-10.1"><tspan dy="1.1em" y="-0.1em" x="0" class="text-outer-tspan"><tspan font-weight="normal" class="text-inner-tspan" font-style="normal">Linked</tspan><tspan font-weight="normal" class="text-inner-tspan" font-style="normal"> Object</tspan><tspan font-weight="normal" class="text-inner-tspan" font-style="normal"> Traversal</tspan></tspan></text></g></g></g><g transform="translate(280.3975640023049, 274.1235497937721)" class="mindmap-node section-8"><g><path d="M0 32.8 v-27.799999999999997 q0,-5 5,-5 h132.59375 q5,0 5,5 v32.8 H0 Z" class="node-bkg node-no-border" id="node-17"/><line y2="37.8" x2="142.59375" y1="37.8" x1="0" class="node-line-8"/></g><g transform="translate(71.296875, 5)" text-anchor="middle" dominant-baseline="middle" alignment-baseline="middle" dy="1em"><g><rect class="background"/><text y="-10.1"><tspan dy="1.1em" y="-0.1em" x="0" class="text-outer-tspan"><tspan font-weight="normal" class="text-inner-tspan" font-style="normal">iCal4j</tspan><tspan font-weight="normal" class="text-inner-tspan" font-style="normal"> Template</tspan></tspan></text></g></g></g><g transform="translate(147.97627524499762, 338.22969995821245)" class="mindmap-node section-8"><g><path d="M0 0 a25.565625,25.565625 0 0,1 42.609375,-17.04375&#10;      a59.653124999999996,59.653124999999996 1 0,1 68.175,-17.04375&#10;      a42.609375,42.609375 1 0,1 59.653124999999996,34.0875&#10;&#10;      a25.565625,25.565625 1 0,1 25.565625,13.229999999999999&#10;      a34.0875,34.0875 1 0,1 -25.565625,24.57&#10;&#10;      a42.609375,25.565625 1 0,1 -42.609375,25.565625&#10;      a59.653124999999996,59.653124999999996 1 0,1 -85.21875,0&#10;      a25.565625,25.565625 1 0,1 -42.609375,-25.565625&#10;&#10;      a25.565625,25.565625 1 0,1 -17.04375,-13.229999999999999&#10;      a34.0875,34.0875 1 0,1 17.04375,-24.57&#10;&#10;    H0 V0 Z" class="node-bkg node-cloud" id="node-18"/></g><g transform="translate(85.21875, 5)" text-anchor="middle" dominant-baseline="middle" alignment-baseline="middle" dy="1em"><g><rect class="background"/><text y="-10.1"><tspan dy="1.1em" y="-0.1em" x="0" class="text-outer-tspan"><tspan font-weight="normal" class="text-inner-tspan" font-style="normal">Content</tspan><tspan font-weight="normal" class="text-inner-tspan" font-style="normal"> Rendering</tspan></tspan></text></g></g></g></g></svg>