<svg aria-roledescription="mindmap" role="graphics-document document" viewBox="-12.293750762939453 -17.2253475189209 1010.3912963867188 500.90087890625" style="max-width: 1010.39px; background-color: white;" xmlns:xlink="http://www.w3.org/1999/xlink" xmlns="http://www.w3.org/2000/svg" width="100%" id="my-svg"><style>#my-svg{font-family:"trebuchet ms",verdana,arial,sans-serif;font-size:16px;fill:#333;}#my-svg .error-icon{fill:#552222;}#my-svg .error-text{fill:#552222;stroke:#552222;}#my-svg .edge-thickness-normal{stroke-width:2px;}#my-svg .edge-thickness-thick{stroke-width:3.5px;}#my-svg .edge-pattern-solid{stroke-dasharray:0;}#my-svg .edge-pattern-dashed{stroke-dasharray:3;}#my-svg .edge-pattern-dotted{stroke-dasharray:2;}#my-svg .marker{fill:#333333;stroke:#333333;}#my-svg .marker.cross{stroke:#333333;}#my-svg svg{font-family:"trebuchet ms",verdana,arial,sans-serif;font-size:16px;}#my-svg .edge{stroke-width:3;}#my-svg .section--1 rect,#my-svg .section--1 path,#my-svg .section--1 circle,#my-svg .section--1 polygon,#my-svg .section--1 path{fill:hsl(240, 100%, 76.2745098039%);}#my-svg .section--1 text{fill:#ffffff;}#my-svg .node-icon--1{font-size:40px;color:#ffffff;}#my-svg .section-edge--1{stroke:hsl(240, 100%, 76.2745098039%);}#my-svg .edge-depth--1{stroke-width:17;}#my-svg .section--1 line{stroke:hsl(60, 100%, 86.2745098039%);stroke-width:3;}#my-svg .disabled,#my-svg .disabled circle,#my-svg .disabled text{fill:lightgray;}#my-svg .disabled text{fill:#efefef;}#my-svg .section-0 rect,#my-svg .section-0 path,#my-svg .section-0 circle,#my-svg .section-0 polygon,#my-svg .section-0 path{fill:hsl(60, 100%, 73.5294117647%);}#my-svg .section-0 text{fill:black;}#my-svg .node-icon-0{font-size:40px;color:black;}#my-svg .section-edge-0{stroke:hsl(60, 100%, 73.5294117647%);}#my-svg .edge-depth-0{stroke-width:14;}#my-svg .section-0 line{stroke:hsl(240, 100%, 83.5294117647%);stroke-width:3;}#my-svg .disabled,#my-svg .disabled circle,#my-svg .disabled text{fill:lightgray;}#my-svg .disabled text{fill:#efefef;}#my-svg .section-1 rect,#my-svg .section-1 path,#my-svg .section-1 circle,#my-svg .section-1 polygon,#my-svg .section-1 path{fill:hsl(80, 100%, 76.2745098039%);}#my-svg .section-1 text{fill:black;}#my-svg .node-icon-1{font-size:40px;color:black;}#my-svg .section-edge-1{stroke:hsl(80, 100%, 76.2745098039%);}#my-svg .edge-depth-1{stroke-width:11;}#my-svg .section-1 line{stroke:hsl(260, 100%, 86.2745098039%);stroke-width:3;}#my-svg .disabled,#my-svg .disabled circle,#my-svg .disabled text{fill:lightgray;}#my-svg .disabled text{fill:#efefef;}#my-svg .section-2 rect,#my-svg .section-2 path,#my-svg .section-2 circle,#my-svg .section-2 polygon,#my-svg .section-2 path{fill:hsl(270, 100%, 76.2745098039%);}#my-svg .section-2 text{fill:#ffffff;}#my-svg .node-icon-2{font-size:40px;color:#ffffff;}#my-svg .section-edge-2{stroke:hsl(270, 100%, 76.2745098039%);}#my-svg .edge-depth-2{stroke-width:8;}#my-svg .section-2 line{stroke:hsl(90, 100%, 86.2745098039%);stroke-width:3;}#my-svg .disabled,#my-svg .disabled circle,#my-svg .disabled text{fill:lightgray;}#my-svg .disabled text{fill:#efefef;}#my-svg .section-3 rect,#my-svg .section-3 path,#my-svg .section-3 circle,#my-svg .section-3 polygon,#my-svg .section-3 path{fill:hsl(300, 100%, 76.2745098039%);}#my-svg .section-3 text{fill:black;}#my-svg .node-icon-3{font-size:40px;color:black;}#my-svg .section-edge-3{stroke:hsl(300, 100%, 76.2745098039%);}#my-svg .edge-depth-3{stroke-width:5;}#my-svg .section-3 line{stroke:hsl(120, 100%, 86.2745098039%);stroke-width:3;}#my-svg .disabled,#my-svg .disabled circle,#my-svg .disabled text{fill:lightgray;}#my-svg .disabled text{fill:#efefef;}#my-svg .section-4 rect,#my-svg .section-4 path,#my-svg .section-4 circle,#my-svg .section-4 polygon,#my-svg .section-4 path{fill:hsl(330, 100%, 76.2745098039%);}#my-svg .section-4 text{fill:black;}#my-svg .node-icon-4{font-size:40px;color:black;}#my-svg .section-edge-4{stroke:hsl(330, 100%, 76.2745098039%);}#my-svg .edge-depth-4{stroke-width:2;}#my-svg .section-4 line{stroke:hsl(150, 100%, 86.2745098039%);stroke-width:3;}#my-svg .disabled,#my-svg .disabled circle,#my-svg .disabled text{fill:lightgray;}#my-svg .disabled text{fill:#efefef;}#my-svg .section-5 rect,#my-svg .section-5 path,#my-svg .section-5 circle,#my-svg .section-5 polygon,#my-svg .section-5 path{fill:hsl(0, 100%, 76.2745098039%);}#my-svg .section-5 text{fill:black;}#my-svg .node-icon-5{font-size:40px;color:black;}#my-svg .section-edge-5{stroke:hsl(0, 100%, 76.2745098039%);}#my-svg .edge-depth-5{stroke-width:-1;}#my-svg .section-5 line{stroke:hsl(180, 100%, 86.2745098039%);stroke-width:3;}#my-svg .disabled,#my-svg .disabled circle,#my-svg .disabled text{fill:lightgray;}#my-svg .disabled text{fill:#efefef;}#my-svg .section-6 rect,#my-svg .section-6 path,#my-svg .section-6 circle,#my-svg .section-6 polygon,#my-svg .section-6 path{fill:hsl(30, 100%, 76.2745098039%);}#my-svg .section-6 text{fill:black;}#my-svg .node-icon-6{font-size:40px;color:black;}#my-svg .section-edge-6{stroke:hsl(30, 100%, 76.2745098039%);}#my-svg .edge-depth-6{stroke-width:-4;}#my-svg .section-6 line{stroke:hsl(210, 100%, 86.2745098039%);stroke-width:3;}#my-svg .disabled,#my-svg .disabled circle,#my-svg .disabled text{fill:lightgray;}#my-svg .disabled text{fill:#efefef;}#my-svg .section-7 rect,#my-svg .section-7 path,#my-svg .section-7 circle,#my-svg .section-7 polygon,#my-svg .section-7 path{fill:hsl(90, 100%, 76.2745098039%);}#my-svg .section-7 text{fill:black;}#my-svg .node-icon-7{font-size:40px;color:black;}#my-svg .section-edge-7{stroke:hsl(90, 100%, 76.2745098039%);}#my-svg .edge-depth-7{stroke-width:-7;}#my-svg .section-7 line{stroke:hsl(270, 100%, 86.2745098039%);stroke-width:3;}#my-svg .disabled,#my-svg .disabled circle,#my-svg .disabled text{fill:lightgray;}#my-svg .disabled text{fill:#efefef;}#my-svg .section-8 rect,#my-svg .section-8 path,#my-svg .section-8 circle,#my-svg .section-8 polygon,#my-svg .section-8 path{fill:hsl(150, 100%, 76.2745098039%);}#my-svg .section-8 text{fill:black;}#my-svg .node-icon-8{font-size:40px;color:black;}#my-svg .section-edge-8{stroke:hsl(150, 100%, 76.2745098039%);}#my-svg .edge-depth-8{stroke-width:-10;}#my-svg .section-8 line{stroke:hsl(330, 100%, 86.2745098039%);stroke-width:3;}#my-svg .disabled,#my-svg .disabled circle,#my-svg .disabled text{fill:lightgray;}#my-svg .disabled text{fill:#efefef;}#my-svg .section-9 rect,#my-svg .section-9 path,#my-svg .section-9 circle,#my-svg .section-9 polygon,#my-svg .section-9 path{fill:hsl(180, 100%, 76.2745098039%);}#my-svg .section-9 text{fill:black;}#my-svg .node-icon-9{font-size:40px;color:black;}#my-svg .section-edge-9{stroke:hsl(180, 100%, 76.2745098039%);}#my-svg .edge-depth-9{stroke-width:-13;}#my-svg .section-9 line{stroke:hsl(0, 100%, 86.2745098039%);stroke-width:3;}#my-svg .disabled,#my-svg .disabled circle,#my-svg .disabled text{fill:lightgray;}#my-svg .disabled text{fill:#efefef;}#my-svg .section-10 rect,#my-svg .section-10 path,#my-svg .section-10 circle,#my-svg .section-10 polygon,#my-svg .section-10 path{fill:hsl(210, 100%, 76.2745098039%);}#my-svg .section-10 text{fill:black;}#my-svg .node-icon-10{font-size:40px;color:black;}#my-svg .section-edge-10{stroke:hsl(210, 100%, 76.2745098039%);}#my-svg .edge-depth-10{stroke-width:-16;}#my-svg .section-10 line{stroke:hsl(30, 100%, 86.2745098039%);stroke-width:3;}#my-svg .disabled,#my-svg .disabled circle,#my-svg .disabled text{fill:lightgray;}#my-svg .disabled text{fill:#efefef;}#my-svg .section-root rect,#my-svg .section-root path,#my-svg .section-root circle,#my-svg .section-root polygon{fill:hsl(240, 100%, 46.2745098039%);}#my-svg .section-root text{fill:#ffffff;}#my-svg .icon-container{height:100%;display:flex;justify-content:center;align-items:center;}#my-svg .edge{fill:none;}#my-svg .mindmap-node-label{dy:1em;alignment-baseline:middle;text-anchor:middle;dominant-baseline:middle;text-align:center;}#my-svg :root{--mermaid-font-family:"trebuchet ms",verdana,arial,sans-serif;}</style><g/><g class="mindmap-edges"><path class="edge section-edge-0 edge-depth-1" d="M 647.4062006696904,170.09376931217986 L 746.205671114571,168.5568041179487 L845.0051415594514,167.01983892371754"/><path class="edge section-edge-0 edge-depth-0" d="M 516.551188979229,228.78683876537423 L 567.7837265702146,202.93560918561667 L619.0162641612003,177.08437960585917"/><path class="edge section-edge-1 edge-depth-1" d="M 583.19762819782,327.64529430845937 L 599.9944342830375,357.63160938904014 L616.7912403682551,387.617924469621"/><path class="edge section-edge-1 edge-depth-0" d="M 513.3163753832804,246.58209373278407 L 539.5132652620791,275.0513334291154 L565.7101551408779,303.52057312544673"/><path class="edge section-edge-2 edge-depth-1" d="M 298.758616764668,222.46386619600037 L 207.55042771367079,210.5424271962833 L116.34223866267357,198.6209881965662"/><path class="edge section-edge-2 edge-depth-0" d="M 488.1852645445995,234.6642812761661 L 408.3957716064789,229.976024249489 L328.6062786683583,225.28776722281185"/><path class="edge section-edge-3 edge-depth-1" d="M 291.9120237829809,292.1367872845234 L 208.75137184888058,313.8984830443881 L125.59071991478024,335.66017880425284"/><path class="edge section-edge-3 edge-depth-0" d="M 488.6720245611482,239.43191430131833 L 404.7914173740098,261.9417722582043 L320.9108101868716,284.45163021509035"/><path class="edge section-edge-4 edge-depth-1" d="M 353.67843988188696,158.25119659743854 L 329.0581497532435,130.35530192357365 L304.4378596246001,102.45940724970878"/><path class="edge section-edge-4 edge-depth-0" d="M 489.6011721861886,229.12747825943353 L 433.3818111806668,202.520821163051 L377.16245017514495,175.9141640666685"/><path class="edge section-edge-5 edge-depth-1" d="M 707.9593854583668,202.6936263054211 L 714.3147354138121,167.7652600683115 L720.6700853692571,132.8368938312019"/><path class="edge section-edge-5 edge-depth-0" d="M 518.099696202322,234.20671628474545 L 604.216801961067,226.49772681385414 L690.3339077198119,218.78873734296283"/><path class="edge section-edge-6 edge-depth-1" d="M 425.56179562864764,343.86634020152525 L 398.33200136208933,371.95768607149165 L371.102207095531,400.04903194145805"/><path class="edge section-edge-6 edge-depth-0" d="M 494.6537087334162,247.89939612303044 L 469.5806928638873,284.31999611950886 L444.5076769943584,320.7405961159873"/><path class="edge section-edge-7 edge-depth-1" d="M 755.1760969990387,286.2186141903734 L 803.4439473456043,310.648431913562 L851.7117976921702,335.07824963675057"/><path class="edge section-edge-7 edge-depth-0" d="M 517.9118743414075,238.25809789731198 L 622.476052408014,257.4944934769327 L727.0402304746204,276.73088905655334"/><path class="edge section-edge-8 edge-depth-1" d="M 503.7387935889981,111.29837611874675 L 503.4414425492182,80.09884745945489 L503.14409150943834,48.899318800163044"/><path class="edge section-edge-8 edge-depth-0" d="M 503.25861167254965,220.54445897242863 L 503.52059213635744,180.9209130195469 L503.7825726001652,141.29736706666523"/></g><g class="mindmap-nodes"><g transform="translate(449.8469377856162, 216.64413112018406)" class="mindmap-node section--1 section-root"><g transform="translate(53.3125, 18.9)"><circle r="53.3125" class="node-bkg node-circle" id="node-0"/></g><g transform="translate(53.3125, 5)" text-anchor="middle" dominant-baseline="middle" alignment-baseline="middle" dy="1em"><g><rect class="background"/><text y="-10.1"><tspan dy="1.1em" y="-0.1em" x="0" class="text-outer-tspan"><tspan font-weight="normal" class="text-inner-tspan" font-style="normal">iCal4j</tspan><tspan font-weight="normal" class="text-inner-tspan" font-style="normal"> Core</tspan></tspan></text></g></g></g><g transform="translate(554.1736403548131, 151.42708725104933)" class="mindmap-node section-0"><g><path d="M0 32.8 v-27.799999999999997 q0,-5 5,-5 h146.46875 q5,0 5,5 v32.8 H0 Z" class="node-bkg node-no-border" id="node-1"/><line y2="37.8" x2="156.46875" y1="37.8" x1="0" class="node-line-0"/></g><g transform="translate(78.234375, 5)" text-anchor="middle" dominant-baseline="middle" alignment-baseline="middle" dy="1em"><g><rect class="background"/><text y="-10.1"><tspan dy="1.1em" y="-0.1em" x="0" class="text-outer-tspan"><tspan font-weight="normal" class="text-inner-tspan" font-style="normal">iCal4j</tspan><tspan font-weight="normal" class="text-inner-tspan" font-style="normal"> Extensions</tspan></tspan></text></g></g></g><g transform="translate(779.9955143743288, 147.88652098484806)" class="mindmap-node section-0"><g><path d="M0 0 a24.002343749999998,24.002343749999998 0 0,1 40.00390625,-16.001562500000002&#10;      a56.00546875,56.00546875 1 0,1 64.00625000000001,-16.001562500000002&#10;      a40.00390625,40.00390625 1 0,1 56.00546875,32.003125000000004&#10;&#10;      a24.002343749999998,24.002343749999998 1 0,1 24.002343749999998,13.229999999999999&#10;      a32.003125000000004,32.003125000000004 1 0,1 -24.002343749999998,24.57&#10;&#10;      a40.00390625,24.002343749999998 1 0,1 -40.00390625,24.002343749999998&#10;      a56.00546875,56.00546875 1 0,1 -80.0078125,0&#10;      a24.002343749999998,24.002343749999998 1 0,1 -40.00390625,-24.002343749999998&#10;&#10;      a24.002343749999998,24.002343749999998 1 0,1 -16.001562500000002,-13.229999999999999&#10;      a32.003125000000004,32.003125000000004 1 0,1 16.001562500000002,-24.57&#10;&#10;    H0 V0 Z" class="node-bkg node-cloud" id="node-2"/></g><g transform="translate(80.0078125, 5)" text-anchor="middle" dominant-baseline="middle" alignment-baseline="middle" dy="1em"><g><rect class="background"/><text y="-10.1"><tspan dy="1.1em" y="-0.1em" x="0" class="text-outer-tspan"><tspan font-weight="normal" class="text-inner-tspan" font-style="normal">Model</tspan><tspan font-weight="normal" class="text-inner-tspan" font-style="normal"> Extensions</tspan></tspan></text></g></g></g><g transform="translate(517.624905238542, 295.6585357380468)" class="mindmap-node section-1"><g><path d="M0 32.8 v-27.799999999999997 q0,-5 5,-5 h106.484375 q5,0 5,5 v32.8 H0 Z" class="node-bkg node-no-border" id="node-3"/><line y2="37.8" x2="116.484375" y1="37.8" x1="0" class="node-line-1"/></g><g transform="translate(58.2421875, 5)" text-anchor="middle" dominant-baseline="middle" alignment-baseline="middle" dy="1em"><g><rect class="background"/><text y="-10.1"><tspan dy="1.1em" y="-0.1em" x="0" class="text-outer-tspan"><tspan font-weight="normal" class="text-inner-tspan" font-style="normal">iCal4j</tspan><tspan font-weight="normal" class="text-inner-tspan" font-style="normal"> vCard</tspan></tspan></text></g></g></g><g transform="translate(518.121775827533, 381.80468304003364)" class="mindmap-node section-1"><g><path d="M0 0 a31.799999999999997,31.799999999999997 0 0,1 53,-21.200000000000003&#10;      a74.19999999999999,74.19999999999999 1 0,1 84.80000000000001,-21.200000000000003&#10;      a53,53 1 0,1 74.19999999999999,42.400000000000006&#10;&#10;      a31.799999999999997,31.799999999999997 1 0,1 31.799999999999997,13.229999999999999&#10;      a42.400000000000006,42.400000000000006 1 0,1 -31.799999999999997,24.57&#10;&#10;      a53,31.799999999999997 1 0,1 -53,31.799999999999997&#10;      a74.19999999999999,74.19999999999999 1 0,1 -106,0&#10;      a31.799999999999997,31.799999999999997 1 0,1 -53,-31.799999999999997&#10;&#10;      a31.799999999999997,31.799999999999997 1 0,1 -21.200000000000003,-13.229999999999999&#10;      a42.400000000000006,42.400000000000006 1 0,1 21.200000000000003,-24.57&#10;&#10;    H0 V0 Z" class="node-bkg node-cloud" id="node-4"/></g><g transform="translate(106, 5)" text-anchor="middle" dominant-baseline="middle" alignment-baseline="middle" dy="1em"><g><rect class="background"/><text y="-10.1"><tspan dy="1.1em" y="-0.1em" x="0" class="text-outer-tspan"><tspan font-weight="normal" class="text-inner-tspan" font-style="normal">vCard</tspan><tspan font-weight="normal" class="text-inner-tspan" font-style="normal"> Model</tspan><tspan font-weight="normal" class="text-inner-tspan" font-style="normal"> Extensions</tspan></tspan></text></g></g></g><g transform="translate(242.33523042734157, 205.50791737879388)" class="mindmap-node section-2"><g><path d="M0 32.8 v-27.799999999999997 q0,-5 5,-5 h132.59375 q5,0 5,5 v32.8 H0 Z" class="node-bkg node-no-border" id="node-5"/><line y2="37.8" x2="142.59375" y1="37.8" x1="0" class="node-line-2"/></g><g transform="translate(71.296875, 5)" text-anchor="middle" dominant-baseline="middle" alignment-baseline="middle" dy="1em"><g><rect class="background"/><text y="-10.1"><tspan dy="1.1em" y="-0.1em" x="0" class="text-outer-tspan"><tspan font-weight="normal" class="text-inner-tspan" font-style="normal">iCal4j</tspan><tspan font-weight="normal" class="text-inner-tspan" font-style="normal"> Template</tspan></tspan></text></g></g></g><g transform="translate(15, 177.77693701377268)" class="mindmap-node section-2"><g><path d="M0 0 a25.940625,25.940625 0 0,1 43.234375,-17.29375&#10;      a60.528124999999996,60.528124999999996 1 0,1 69.175,-17.29375&#10;      a43.234375,43.234375 1 0,1 60.528124999999996,34.5875&#10;&#10;      a25.940625,25.940625 1 0,1 25.940625,13.229999999999999&#10;      a34.5875,34.5875 1 0,1 -25.940625,24.57&#10;&#10;      a43.234375,25.940625 1 0,1 -43.234375,25.940625&#10;      a60.528124999999996,60.528124999999996 1 0,1 -86.46875,0&#10;      a25.940625,25.940625 1 0,1 -43.234375,-25.940625&#10;&#10;      a25.940625,25.940625 1 0,1 -17.29375,-13.229999999999999&#10;      a34.5875,34.5875 1 0,1 17.29375,-24.57&#10;&#10;    H0 V0 Z" class="node-bkg node-cloud" id="node-6"/></g><g transform="translate(86.46875, 5)" text-anchor="middle" dominant-baseline="middle" alignment-baseline="middle" dy="1em"><g><rect class="background"/><text y="-10.1"><tspan dy="1.1em" y="-0.1em" x="0" class="text-outer-tspan"><tspan font-weight="normal" class="text-inner-tspan" font-style="normal">Creational</tspan><tspan font-weight="normal" class="text-inner-tspan" font-style="normal"> Patterns</tspan></tspan></text></g></g></g><g transform="translate(230.50933446240356, 269.4394133962246)" class="mindmap-node section-3"><g><path d="M0 32.8 v-27.799999999999997 q0,-5 5,-5 h141.828125 q5,0 5,5 v32.8 H0 Z" class="node-bkg node-no-border" id="node-7"/><line y2="37.8" x2="151.828125" y1="37.8" x1="0" class="node-line-3"/></g><g transform="translate(75.9140625, 5)" text-anchor="middle" dominant-baseline="middle" alignment-baseline="middle" dy="1em"><g><rect class="background"/><text y="-10.1"><tspan dy="1.1em" y="-0.1em" x="0" class="text-outer-tspan"><tspan font-weight="normal" class="text-inner-tspan" font-style="normal">iCal4j</tspan><tspan font-weight="normal" class="text-inner-tspan" font-style="normal"> Command</tspan></tspan></text></g></g></g><g transform="translate(28.634034235357603, 320.55755269255167)" class="mindmap-node section-3"><g><path d="M0 0 a24.73359375,24.73359375 0 0,1 41.22265625,-16.4890625&#10;      a57.711718749999996,57.711718749999996 1 0,1 65.95625,-16.4890625&#10;      a41.22265625,41.22265625 1 0,1 57.711718749999996,32.978125&#10;&#10;      a24.73359375,24.73359375 1 0,1 24.73359375,13.229999999999999&#10;      a32.978125,32.978125 1 0,1 -24.73359375,24.57&#10;&#10;      a41.22265625,24.73359375 1 0,1 -41.22265625,24.73359375&#10;      a57.711718749999996,57.711718749999996 1 0,1 -82.4453125,0&#10;      a24.73359375,24.73359375 1 0,1 -41.22265625,-24.73359375&#10;&#10;      a24.73359375,24.73359375 1 0,1 -16.4890625,-13.229999999999999&#10;      a32.978125,32.978125 1 0,1 16.4890625,-24.57&#10;&#10;    H0 V0 Z" class="node-bkg node-cloud" id="node-8"/></g><g transform="translate(82.4453125, 5)" text-anchor="middle" dominant-baseline="middle" alignment-baseline="middle" dy="1em"><g><rect class="background"/><text y="-10.1"><tspan dy="1.1em" y="-0.1em" x="0" class="text-outer-tspan"><tspan font-weight="normal" class="text-inner-tspan" font-style="normal">Command</tspan><tspan font-weight="normal" class="text-inner-tspan" font-style="normal"> Pattern</tspan></tspan></text></g></g></g><g transform="translate(287.33855957571734, 150.59751120591795)" class="mindmap-node section-4"><g><path d="M0 32.8 v-27.799999999999997 q0,-5 5,-5 h142.53125 q5,0 5,5 v32.8 H0 Z" class="node-bkg node-no-border" id="node-9"/><line y2="37.8" x2="152.53125" y1="37.8" x1="0" class="node-line-4"/></g><g transform="translate(76.265625, 5)" text-anchor="middle" dominant-baseline="middle" alignment-baseline="middle" dy="1em"><g><rect class="background"/><text y="-10.1"><tspan dy="1.1em" y="-0.1em" x="0" class="text-outer-tspan"><tspan font-weight="normal" class="text-inner-tspan" font-style="normal">iCal4j</tspan><tspan font-weight="normal" class="text-inner-tspan" font-style="normal"> Connector</tspan></tspan></text></g></g></g><g transform="translate(238.7543024307697, 72.31309264122933)" class="mindmap-node section-4"><g><path d="M0 0 a16.72734375,16.72734375 0 0,1 27.87890625,-11.1515625&#10;      a39.03046875,39.03046875 1 0,1 44.60625,-11.1515625&#10;      a27.87890625,27.87890625 1 0,1 39.03046875,22.303125&#10;&#10;      a16.72734375,16.72734375 1 0,1 16.72734375,13.229999999999999&#10;      a22.303125,22.303125 1 0,1 -16.72734375,24.57&#10;&#10;      a27.87890625,16.72734375 1 0,1 -27.87890625,16.72734375&#10;      a39.03046875,39.03046875 1 0,1 -55.7578125,0&#10;      a16.72734375,16.72734375 1 0,1 -27.87890625,-16.72734375&#10;&#10;      a16.72734375,16.72734375 1 0,1 -11.1515625,-13.229999999999999&#10;      a22.303125,22.303125 1 0,1 11.1515625,-24.57&#10;&#10;    H0 V0 Z" class="node-bkg node-cloud" id="node-10"/></g><g transform="translate(55.7578125, 5)" text-anchor="middle" dominant-baseline="middle" alignment-baseline="middle" dy="1em"><g><rect class="background"/><text y="-10.1"><tspan dy="1.1em" y="-0.1em" x="0" class="text-outer-tspan"><tspan font-weight="normal" class="text-inner-tspan" font-style="normal">Persistence</tspan></tspan></text></g></g></g><g transform="translate(626.3991661365177, 198.55132250752422)" class="mindmap-node section-5"><g><path d="M0 32.8 v-27.799999999999997 q0,-5 5,-5 h147.75 q5,0 5,5 v32.8 H0 Z" class="node-bkg node-no-border" id="node-11"/><line y2="37.8" x2="157.75" y1="37.8" x1="0" class="node-line-5"/></g><g transform="translate(78.875, 5)" text-anchor="middle" dominant-baseline="middle" alignment-baseline="middle" dy="1em"><g><rect class="background"/><text y="-10.1"><tspan dy="1.1em" y="-0.1em" x="0" class="text-outer-tspan"><tspan font-weight="normal" class="text-inner-tspan" font-style="normal">iCal4j</tspan><tspan font-weight="normal" class="text-inner-tspan" font-style="normal"> Integration</tspan></tspan></text></g></g></g><g transform="translate(633.7771796911062, 99.17919762909878)" class="mindmap-node section-5"><g><path d="M0 0 a26.873437499999998,26.873437499999998 0 0,1 44.7890625,-17.915625000000002&#10;      a62.7046875,62.7046875 1 0,1 71.66250000000001,-17.915625000000002&#10;      a44.7890625,44.7890625 1 0,1 62.7046875,35.831250000000004&#10;&#10;      a26.873437499999998,26.873437499999998 1 0,1 26.873437499999998,13.229999999999999&#10;      a35.831250000000004,35.831250000000004 1 0,1 -26.873437499999998,24.57&#10;&#10;      a44.7890625,26.873437499999998 1 0,1 -44.7890625,26.873437499999998&#10;      a62.7046875,62.7046875 1 0,1 -89.578125,0&#10;      a26.873437499999998,26.873437499999998 1 0,1 -44.7890625,-26.873437499999998&#10;&#10;      a26.873437499999998,26.873437499999998 1 0,1 -17.915625000000002,-13.229999999999999&#10;      a35.831250000000004,35.831250000000004 1 0,1 17.915625000000002,-24.57&#10;&#10;    H0 V0 Z" class="node-bkg node-cloud" id="node-12"/></g><g transform="translate(89.578125, 5)" text-anchor="middle" dominant-baseline="middle" alignment-baseline="middle" dy="1em"><g><rect class="background"/><text y="-10.1"><tspan dy="1.1em" y="-0.1em" x="0" class="text-outer-tspan"><tspan font-weight="normal" class="text-inner-tspan" font-style="normal">Integration</tspan><tspan font-weight="normal" class="text-inner-tspan" font-style="normal"> Patterns</tspan></tspan></text></g></g></g><g transform="translate(371.9863229421584, 314.1958611188337)" class="mindmap-node section-6"><g><path d="M0 32.8 v-27.799999999999997 q0,-5 5,-5 h118.03125 q5,0 5,5 v32.8 H0 Z" class="node-bkg node-no-border" id="node-13"/><line y2="37.8" x2="128.03125" y1="37.8" x1="0" class="node-line-6"/></g><g transform="translate(64.015625, 5)" text-anchor="middle" dominant-baseline="middle" alignment-baseline="middle" dy="1em"><g><rect class="background"/><text y="-10.1"><tspan dy="1.1em" y="-0.1em" x="0" class="text-outer-tspan"><tspan font-weight="normal" class="text-inner-tspan" font-style="normal">iCal4j</tspan><tspan font-weight="normal" class="text-inner-tspan" font-style="normal"> Actions</tspan></tspan></text></g></g></g><g transform="translate(280.5683047820203, 391.91951102414964)" class="mindmap-node section-6"><g><path d="M0 0 a24.028125,24.028125 0 0,1 40.046875,-16.01875&#10;      a56.065625,56.065625 1 0,1 64.075,-16.01875&#10;      a40.046875,40.046875 1 0,1 56.065625,32.0375&#10;&#10;      a24.028125,24.028125 1 0,1 24.028125,13.229999999999999&#10;      a32.0375,32.0375 1 0,1 -24.028125,24.57&#10;&#10;      a40.046875,24.028125 1 0,1 -40.046875,24.028125&#10;      a56.065625,56.065625 1 0,1 -80.09375,0&#10;      a24.028125,24.028125 1 0,1 -40.046875,-24.028125&#10;&#10;      a24.028125,24.028125 1 0,1 -16.01875,-13.229999999999999&#10;      a32.0375,32.0375 1 0,1 16.01875,-24.57&#10;&#10;    H0 V0 Z" class="node-bkg node-cloud" id="node-14"/></g><g transform="translate(80.09375, 5)" text-anchor="middle" dominant-baseline="middle" alignment-baseline="middle" dy="1em"><g><rect class="background"/><text y="-10.1"><tspan dy="1.1em" y="-0.1em" x="0" class="text-outer-tspan"><tspan font-weight="normal" class="text-inner-tspan" font-style="normal">Reactive</tspan><tspan font-weight="normal" class="text-inner-tspan" font-style="normal"> Streams</tspan></tspan></text></g></g></g><g transform="translate(637.4293857804117, 260.54485583368125)" class="mindmap-node section-7"><g><path d="M0 32.8 v-27.799999999999997 q0,-5 5,-5 h198.7265625 q5,0 5,5 v32.8 H0 Z" class="node-bkg node-no-border" id="node-15"/><line y2="37.8" x2="208.7265625" y1="37.8" x1="0" class="node-line-7"/></g><g transform="translate(104.36328125, 5)" text-anchor="middle" dominant-baseline="middle" alignment-baseline="middle" dy="1em"><g><rect class="background"/><text y="-10.1"><tspan dy="1.1em" y="-0.1em" x="0" class="text-outer-tspan"><tspan font-weight="normal" class="text-inner-tspan" font-style="normal">iCal4j</tspan><tspan font-weight="normal" class="text-inner-tspan" font-style="normal"> ZoneInfo</tspan><tspan font-weight="normal" class="text-inner-tspan" font-style="normal"> Outlook</tspan></tspan></text></g></g></g><g transform="translate(770.4780401607971, 322.95200799344275)" class="mindmap-node section-7"><g><path d="M0 0 a28.385156249999998,28.385156249999998 0 0,1 47.30859375,-18.923437500000002&#10;      a66.23203124999999,66.23203124999999 1 0,1 75.69375000000001,-18.923437500000002&#10;      a47.30859375,47.30859375 1 0,1 66.23203124999999,37.846875000000004&#10;&#10;      a28.385156249999998,28.385156249999998 1 0,1 28.385156249999998,13.229999999999999&#10;      a37.846875000000004,37.846875000000004 1 0,1 -28.385156249999998,24.57&#10;&#10;      a47.30859375,28.385156249999998 1 0,1 -47.30859375,28.385156249999998&#10;      a66.23203124999999,66.23203124999999 1 0,1 -94.6171875,0&#10;      a28.385156249999998,28.385156249999998 1 0,1 -47.30859375,-28.385156249999998&#10;&#10;      a28.385156249999998,28.385156249999998 1 0,1 -18.923437500000002,-13.229999999999999&#10;      a37.846875000000004,37.846875000000004 1 0,1 18.923437500000002,-24.57&#10;&#10;    H0 V0 Z" class="node-bkg node-cloud" id="node-16"/></g><g transform="translate(94.6171875, 5)" text-anchor="middle" dominant-baseline="middle" alignment-baseline="middle" dy="1em"><g><rect class="background"/><text y="-10.1"><tspan dy="1.1em" y="-0.1em" x="0" class="text-outer-tspan"><tspan font-weight="normal" class="text-inner-tspan" font-style="normal">Timezone</tspan><tspan font-weight="normal" class="text-inner-tspan" font-style="normal"> Definitions</tspan></tspan></text></g></g></g><g transform="translate(431.60830898709867, 107.39769491890979)" class="mindmap-node section-8"><g><path d="M0 32.8 v-27.799999999999997 q0,-5 5,-5 h134.546875 q5,0 5,5 v32.8 H0 Z" class="node-bkg node-no-border" id="node-17"/><line y2="37.8" x2="144.546875" y1="37.8" x1="0" class="node-line-8"/></g><g transform="translate(72.2734375, 5)" text-anchor="middle" dominant-baseline="middle" alignment-baseline="middle" dy="1em"><g><rect class="background"/><text y="-10.1"><tspan dy="1.1em" y="-0.1em" x="0" class="text-outer-tspan"><tspan font-weight="normal" class="text-inner-tspan" font-style="normal">iCal4j</tspan><tspan font-weight="normal" class="text-inner-tspan" font-style="normal"> Serializer</tspan></tspan></text></g></g></g><g transform="translate(453.74332611133775, 15)" class="mindmap-node section-8"><g><path d="M0 0 a14.77734375,14.77734375 0 0,1 24.62890625,-9.8515625&#10;      a34.48046875,34.48046875 1 0,1 39.40625,-9.8515625&#10;      a24.62890625,24.62890625 1 0,1 34.48046875,19.703125&#10;&#10;      a14.77734375,14.77734375 1 0,1 14.77734375,13.229999999999999&#10;      a19.703125,19.703125 1 0,1 -14.77734375,24.57&#10;&#10;      a24.62890625,14.77734375 1 0,1 -24.62890625,14.77734375&#10;      a34.48046875,34.48046875 1 0,1 -49.2578125,0&#10;      a14.77734375,14.77734375 1 0,1 -24.62890625,-14.77734375&#10;&#10;      a14.77734375,14.77734375 1 0,1 -9.8515625,-13.229999999999999&#10;      a19.703125,19.703125 1 0,1 9.8515625,-24.57&#10;&#10;    H0 V0 Z" class="node-bkg node-cloud" id="node-18"/></g><g transform="translate(49.2578125, 5)" text-anchor="middle" dominant-baseline="middle" alignment-baseline="middle" dy="1em"><g><rect class="background"/><text y="-10.1"><tspan dy="1.1em" y="-0.1em" x="0" class="text-outer-tspan"><tspan font-weight="normal" class="text-inner-tspan" font-style="normal">XML/JSON</tspan></tspan></text></g></g></g></g></svg>