<svg aria-roledescription="mindmap" role="graphics-document document" viewBox="-11.001562118530273 -34.01509475708008 1145.5064697265625 513.22607421875" style="max-width: 1145.51px; background-color: white;" xmlns:xlink="http://www.w3.org/1999/xlink" xmlns="http://www.w3.org/2000/svg" width="100%" id="my-svg"><style>#my-svg{font-family:"trebuchet ms",verdana,arial,sans-serif;font-size:16px;fill:#333;}#my-svg .error-icon{fill:#552222;}#my-svg .error-text{fill:#552222;stroke:#552222;}#my-svg .edge-thickness-normal{stroke-width:2px;}#my-svg .edge-thickness-thick{stroke-width:3.5px;}#my-svg .edge-pattern-solid{stroke-dasharray:0;}#my-svg .edge-pattern-dashed{stroke-dasharray:3;}#my-svg .edge-pattern-dotted{stroke-dasharray:2;}#my-svg .marker{fill:#333333;stroke:#333333;}#my-svg .marker.cross{stroke:#333333;}#my-svg svg{font-family:"trebuchet ms",verdana,arial,sans-serif;font-size:16px;}#my-svg .edge{stroke-width:3;}#my-svg .section--1 rect,#my-svg .section--1 path,#my-svg .section--1 circle,#my-svg .section--1 polygon,#my-svg .section--1 path{fill:hsl(240, 100%, 76.2745098039%);}#my-svg .section--1 text{fill:#ffffff;}#my-svg .node-icon--1{font-size:40px;color:#ffffff;}#my-svg .section-edge--1{stroke:hsl(240, 100%, 76.2745098039%);}#my-svg .edge-depth--1{stroke-width:17;}#my-svg .section--1 line{stroke:hsl(60, 100%, 86.2745098039%);stroke-width:3;}#my-svg .disabled,#my-svg .disabled circle,#my-svg .disabled text{fill:lightgray;}#my-svg .disabled text{fill:#efefef;}#my-svg .section-0 rect,#my-svg .section-0 path,#my-svg .section-0 circle,#my-svg .section-0 polygon,#my-svg .section-0 path{fill:hsl(60, 100%, 73.5294117647%);}#my-svg .section-0 text{fill:black;}#my-svg .node-icon-0{font-size:40px;color:black;}#my-svg .section-edge-0{stroke:hsl(60, 100%, 73.5294117647%);}#my-svg .edge-depth-0{stroke-width:14;}#my-svg .section-0 line{stroke:hsl(240, 100%, 83.5294117647%);stroke-width:3;}#my-svg .disabled,#my-svg .disabled circle,#my-svg .disabled text{fill:lightgray;}#my-svg .disabled text{fill:#efefef;}#my-svg .section-1 rect,#my-svg .section-1 path,#my-svg .section-1 circle,#my-svg .section-1 polygon,#my-svg .section-1 path{fill:hsl(80, 100%, 76.2745098039%);}#my-svg .section-1 text{fill:black;}#my-svg .node-icon-1{font-size:40px;color:black;}#my-svg .section-edge-1{stroke:hsl(80, 100%, 76.2745098039%);}#my-svg .edge-depth-1{stroke-width:11;}#my-svg .section-1 line{stroke:hsl(260, 100%, 86.2745098039%);stroke-width:3;}#my-svg .disabled,#my-svg .disabled circle,#my-svg .disabled text{fill:lightgray;}#my-svg .disabled text{fill:#efefef;}#my-svg .section-2 rect,#my-svg .section-2 path,#my-svg .section-2 circle,#my-svg .section-2 polygon,#my-svg .section-2 path{fill:hsl(270, 100%, 76.2745098039%);}#my-svg .section-2 text{fill:#ffffff;}#my-svg .node-icon-2{font-size:40px;color:#ffffff;}#my-svg .section-edge-2{stroke:hsl(270, 100%, 76.2745098039%);}#my-svg .edge-depth-2{stroke-width:8;}#my-svg .section-2 line{stroke:hsl(90, 100%, 86.2745098039%);stroke-width:3;}#my-svg .disabled,#my-svg .disabled circle,#my-svg .disabled text{fill:lightgray;}#my-svg .disabled text{fill:#efefef;}#my-svg .section-3 rect,#my-svg .section-3 path,#my-svg .section-3 circle,#my-svg .section-3 polygon,#my-svg .section-3 path{fill:hsl(300, 100%, 76.2745098039%);}#my-svg .section-3 text{fill:black;}#my-svg .node-icon-3{font-size:40px;color:black;}#my-svg .section-edge-3{stroke:hsl(300, 100%, 76.2745098039%);}#my-svg .edge-depth-3{stroke-width:5;}#my-svg .section-3 line{stroke:hsl(120, 100%, 86.2745098039%);stroke-width:3;}#my-svg .disabled,#my-svg .disabled circle,#my-svg .disabled text{fill:lightgray;}#my-svg .disabled text{fill:#efefef;}#my-svg .section-4 rect,#my-svg .section-4 path,#my-svg .section-4 circle,#my-svg .section-4 polygon,#my-svg .section-4 path{fill:hsl(330, 100%, 76.2745098039%);}#my-svg .section-4 text{fill:black;}#my-svg .node-icon-4{font-size:40px;color:black;}#my-svg .section-edge-4{stroke:hsl(330, 100%, 76.2745098039%);}#my-svg .edge-depth-4{stroke-width:2;}#my-svg .section-4 line{stroke:hsl(150, 100%, 86.2745098039%);stroke-width:3;}#my-svg .disabled,#my-svg .disabled circle,#my-svg .disabled text{fill:lightgray;}#my-svg .disabled text{fill:#efefef;}#my-svg .section-5 rect,#my-svg .section-5 path,#my-svg .section-5 circle,#my-svg .section-5 polygon,#my-svg .section-5 path{fill:hsl(0, 100%, 76.2745098039%);}#my-svg .section-5 text{fill:black;}#my-svg .node-icon-5{font-size:40px;color:black;}#my-svg .section-edge-5{stroke:hsl(0, 100%, 76.2745098039%);}#my-svg .edge-depth-5{stroke-width:-1;}#my-svg .section-5 line{stroke:hsl(180, 100%, 86.2745098039%);stroke-width:3;}#my-svg .disabled,#my-svg .disabled circle,#my-svg .disabled text{fill:lightgray;}#my-svg .disabled text{fill:#efefef;}#my-svg .section-6 rect,#my-svg .section-6 path,#my-svg .section-6 circle,#my-svg .section-6 polygon,#my-svg .section-6 path{fill:hsl(30, 100%, 76.2745098039%);}#my-svg .section-6 text{fill:black;}#my-svg .node-icon-6{font-size:40px;color:black;}#my-svg .section-edge-6{stroke:hsl(30, 100%, 76.2745098039%);}#my-svg .edge-depth-6{stroke-width:-4;}#my-svg .section-6 line{stroke:hsl(210, 100%, 86.2745098039%);stroke-width:3;}#my-svg .disabled,#my-svg .disabled circle,#my-svg .disabled text{fill:lightgray;}#my-svg .disabled text{fill:#efefef;}#my-svg .section-7 rect,#my-svg .section-7 path,#my-svg .section-7 circle,#my-svg .section-7 polygon,#my-svg .section-7 path{fill:hsl(90, 100%, 76.2745098039%);}#my-svg .section-7 text{fill:black;}#my-svg .node-icon-7{font-size:40px;color:black;}#my-svg .section-edge-7{stroke:hsl(90, 100%, 76.2745098039%);}#my-svg .edge-depth-7{stroke-width:-7;}#my-svg .section-7 line{stroke:hsl(270, 100%, 86.2745098039%);stroke-width:3;}#my-svg .disabled,#my-svg .disabled circle,#my-svg .disabled text{fill:lightgray;}#my-svg .disabled text{fill:#efefef;}#my-svg .section-8 rect,#my-svg .section-8 path,#my-svg .section-8 circle,#my-svg .section-8 polygon,#my-svg .section-8 path{fill:hsl(150, 100%, 76.2745098039%);}#my-svg .section-8 text{fill:black;}#my-svg .node-icon-8{font-size:40px;color:black;}#my-svg .section-edge-8{stroke:hsl(150, 100%, 76.2745098039%);}#my-svg .edge-depth-8{stroke-width:-10;}#my-svg .section-8 line{stroke:hsl(330, 100%, 86.2745098039%);stroke-width:3;}#my-svg .disabled,#my-svg .disabled circle,#my-svg .disabled text{fill:lightgray;}#my-svg .disabled text{fill:#efefef;}#my-svg .section-9 rect,#my-svg .section-9 path,#my-svg .section-9 circle,#my-svg .section-9 polygon,#my-svg .section-9 path{fill:hsl(180, 100%, 76.2745098039%);}#my-svg .section-9 text{fill:black;}#my-svg .node-icon-9{font-size:40px;color:black;}#my-svg .section-edge-9{stroke:hsl(180, 100%, 76.2745098039%);}#my-svg .edge-depth-9{stroke-width:-13;}#my-svg .section-9 line{stroke:hsl(0, 100%, 86.2745098039%);stroke-width:3;}#my-svg .disabled,#my-svg .disabled circle,#my-svg .disabled text{fill:lightgray;}#my-svg .disabled text{fill:#efefef;}#my-svg .section-10 rect,#my-svg .section-10 path,#my-svg .section-10 circle,#my-svg .section-10 polygon,#my-svg .section-10 path{fill:hsl(210, 100%, 76.2745098039%);}#my-svg .section-10 text{fill:black;}#my-svg .node-icon-10{font-size:40px;color:black;}#my-svg .section-edge-10{stroke:hsl(210, 100%, 76.2745098039%);}#my-svg .edge-depth-10{stroke-width:-16;}#my-svg .section-10 line{stroke:hsl(30, 100%, 86.2745098039%);stroke-width:3;}#my-svg .disabled,#my-svg .disabled circle,#my-svg .disabled text{fill:lightgray;}#my-svg .disabled text{fill:#efefef;}#my-svg .section-root rect,#my-svg .section-root path,#my-svg .section-root circle,#my-svg .section-root polygon{fill:hsl(240, 100%, 46.2745098039%);}#my-svg .section-root text{fill:#ffffff;}#my-svg .icon-container{height:100%;display:flex;justify-content:center;align-items:center;}#my-svg .edge{fill:none;}#my-svg .mindmap-node-label{dy:1em;alignment-baseline:middle;text-anchor:middle;dominant-baseline:middle;text-align:center;}#my-svg :root{--mermaid-font-family:"trebuchet ms",verdana,arial,sans-serif;}</style><g/><g class="mindmap-edges"><path class="edge section-edge-0 edge-depth-1" d="M 292.19695504690947,223.10932299130536 L 201.0170597357063,209.23698940119823 L109.83716442450316,195.36465581109115"/><path class="edge section-edge-0 edge-depth-0" d="M 494.7256334711251,234.21393656271212 L 408.36765035994495,230.14288632493643 L322.0096672487647,226.07183608716073"/><path class="edge section-edge-1 edge-depth-1" d="M 317.5781946286575,291.12834444217214 L 236.13063313371538,310.0847985297944 L154.68307163877324,329.04125261741666"/><path class="edge section-edge-1 edge-depth-0" d="M 495.33163860009137,239.19715047729036 L 420.9483542892364,261.32416887528785 L346.5650699783815,283.45118727328537"/><path class="edge section-edge-2 edge-depth-1" d="M 491.1929221534519,110.88005493379097 L 493.47751910547584,79.8697564720193 L495.7621160574998,48.85945801024762"/><path class="edge section-edge-2 edge-depth-0" d="M 507.0538447401279,220.1571396016098 L 499.8999098496979,180.3798942590901 L492.7459749592679,140.6026489165704"/><path class="edge section-edge-3 edge-depth-1" d="M 347.7516712503977,161.7189849293921 L 310.10718300677166,135.56499586287222 L272.46269476314563,109.41100679635235"/><path class="edge section-edge-3 edge-depth-0" d="M 495.93893056442505,228.97171609245092 L 434.8896884987864,202.59892151005758 L373.8404464331478,176.22612692766424"/><path class="edge section-edge-4 edge-depth-1" d="M 423.35059664458316,349.25993004825705 L 409.256865454113,378.7954957759773 L395.1631342636428,408.3310615036977"/><path class="edge section-edge-4 edge-depth-0" d="M 500.3915006065296,246.6754583268579 L 469.7597465293125,285.32124660147986 L439.12799245209544,323.9670348761018"/><path class="edge section-edge-5 edge-depth-1" d="M 641.0931717900515,161.2988960521905 L 679.5804830039091,135.02988889739717 L718.0677942177666,108.76088174260383"/><path class="edge section-edge-5 edge-depth-0" d="M 522.8653739982897,227.71543978681495 L 569.2064504725253,202.33765046595903 L615.5475269467609,176.95986114510305"/><path class="edge section-edge-6 edge-depth-1" d="M 597.1028845666364,325.02831466884044 L 606.7333366072107,356.2270705697896 L616.3637886477851,387.42582647073874"/><path class="edge section-edge-6 edge-depth-0" d="M 520.784918016246,245.0358033218495 L 551.1938259950891,272.8079463052222 L581.6027339739322,300.5800892885949"/><path class="edge section-edge-7 edge-depth-1" d="M 773.2344685233227,215.56076136341267 L 880.012429635402,236.78608201306508 L986.7903907474813,258.0114026627175"/><path class="edge section-edge-7 edge-depth-0" d="M 524.6491943234877,233.58221474650492 L 634.1156552498112,223.77827787362733 L743.5821161761347,213.97434100074975"/><path class="edge section-edge-8 edge-depth-1" d="M 718.3491570139836,276.43233516814803 L 756.5891496221864,302.3828786125256 L794.8291422303894,328.33342205690315"/><path class="edge section-edge-8 edge-depth-0" d="M 524.5001773565843,237.4144462722414 L 607.823156153304,251.4648250451247 L691.1461349500237,265.51520381800805"/></g><g class="mindmap-nodes"><g transform="translate(456.39649374847716, 216.02027557414158)" class="mindmap-node section--1 section-root"><g transform="translate(53.3125, 18.9)"><circle r="53.3125" class="node-bkg node-circle" id="node-0"/></g><g transform="translate(53.3125, 5)" text-anchor="middle" dominant-baseline="middle" alignment-baseline="middle" dy="1em"><g><rect class="background"/><text y="-10.1"><tspan dy="1.1em" y="-0.1em" x="0" class="text-outer-tspan"><tspan font-weight="normal" class="text-inner-tspan" font-style="normal">iCal4j</tspan><tspan font-weight="normal" class="text-inner-tspan" font-style="normal"> Core</tspan></tspan></text></g></g></g><g transform="translate(228.79193197141262, 206.46549707573126)" class="mindmap-node section-0"><g><path d="M0 32.8 v-27.799999999999997 q0,-5 5,-5 h146.46875 q5,0 5,5 v32.8 H0 Z" class="node-bkg node-no-border" id="node-1"/><line y2="37.8" x2="156.46875" y1="37.8" x1="0" class="node-line-0"/></g><g transform="translate(78.234375, 5)" text-anchor="middle" dominant-baseline="middle" alignment-baseline="middle" dy="1em"><g><rect class="background"/><text y="-10.1"><tspan dy="1.1em" y="-0.1em" x="0" class="text-outer-tspan"><tspan font-weight="normal" class="text-inner-tspan" font-style="normal">iCal4j</tspan><tspan font-weight="normal" class="text-inner-tspan" font-style="normal"> Extensions</tspan></tspan></text></g></g></g><g transform="translate(15, 174.20848172666524)" class="mindmap-node section-0"><g><path d="M0 0 a24.002343749999998,24.002343749999998 0 0,1 40.00390625,-16.001562500000002&#10;      a56.00546875,56.00546875 1 0,1 64.00625000000001,-16.001562500000002&#10;      a40.00390625,40.00390625 1 0,1 56.00546875,32.003125000000004&#10;&#10;      a24.002343749999998,24.002343749999998 1 0,1 24.002343749999998,13.229999999999999&#10;      a32.003125000000004,32.003125000000004 1 0,1 -24.002343749999998,24.57&#10;&#10;      a40.00390625,24.002343749999998 1 0,1 -40.00390625,24.002343749999998&#10;      a56.00546875,56.00546875 1 0,1 -80.0078125,0&#10;      a24.002343749999998,24.002343749999998 1 0,1 -40.00390625,-24.002343749999998&#10;&#10;      a24.002343749999998,24.002343749999998 1 0,1 -16.001562500000002,-13.229999999999999&#10;      a32.003125000000004,32.003125000000004 1 0,1 16.001562500000002,-24.57&#10;&#10;    H0 V0 Z" class="node-bkg node-cloud" id="node-2"/></g><g transform="translate(80.0078125, 5)" text-anchor="middle" dominant-baseline="middle" alignment-baseline="middle" dy="1em"><g><rect class="background"/><text y="-10.1"><tspan dy="1.1em" y="-0.1em" x="0" class="text-outer-tspan"><tspan font-weight="normal" class="text-inner-tspan" font-style="normal">Model</tspan><tspan font-weight="normal" class="text-inner-tspan" font-style="normal"> Extensions</tspan></tspan></text></g></g></g><g transform="translate(273.9455273299957, 268.8280621764342)" class="mindmap-node section-1"><g><path d="M0 32.8 v-27.799999999999997 q0,-5 5,-5 h106.484375 q5,0 5,5 v32.8 H0 Z" class="node-bkg node-no-border" id="node-3"/><line y2="37.8" x2="116.484375" y1="37.8" x1="0" class="node-line-1"/></g><g transform="translate(58.2421875, 5)" text-anchor="middle" dominant-baseline="middle" alignment-baseline="middle" dy="1em"><g><rect class="background"/><text y="-10.1"><tspan dy="1.1em" y="-0.1em" x="0" class="text-outer-tspan"><tspan font-weight="normal" class="text-inner-tspan" font-style="normal">iCal4j</tspan><tspan font-weight="normal" class="text-inner-tspan" font-style="normal"> vCard</tspan></tspan></text></g></g></g><g transform="translate(34.07355143743507, 313.54153488315467)" class="mindmap-node section-1"><g><path d="M0 0 a31.799999999999997,31.799999999999997 0 0,1 53,-21.200000000000003&#10;      a74.19999999999999,74.19999999999999 1 0,1 84.80000000000001,-21.200000000000003&#10;      a53,53 1 0,1 74.19999999999999,42.400000000000006&#10;&#10;      a31.799999999999997,31.799999999999997 1 0,1 31.799999999999997,13.229999999999999&#10;      a42.400000000000006,42.400000000000006 1 0,1 -31.799999999999997,24.57&#10;&#10;      a53,31.799999999999997 1 0,1 -53,31.799999999999997&#10;      a74.19999999999999,74.19999999999999 1 0,1 -106,0&#10;      a31.799999999999997,31.799999999999997 1 0,1 -53,-31.799999999999997&#10;&#10;      a31.799999999999997,31.799999999999997 1 0,1 -21.200000000000003,-13.229999999999999&#10;      a42.400000000000006,42.400000000000006 1 0,1 21.200000000000003,-24.57&#10;&#10;    H0 V0 Z" class="node-bkg node-cloud" id="node-4"/></g><g transform="translate(106, 5)" text-anchor="middle" dominant-baseline="middle" alignment-baseline="middle" dy="1em"><g><rect class="background"/><text y="-10.1"><tspan dy="1.1em" y="-0.1em" x="0" class="text-outer-tspan"><tspan font-weight="normal" class="text-inner-tspan" font-style="normal">vCard</tspan><tspan font-weight="normal" class="text-inner-tspan" font-style="normal"> Model</tspan><tspan font-weight="normal" class="text-inner-tspan" font-style="normal"> Extensions</tspan></tspan></text></g></g></g><g transform="translate(418.79395095091866, 106.9395129440386)" class="mindmap-node section-2"><g><path d="M0 32.8 v-27.799999999999997 q0,-5 5,-5 h132.59375 q5,0 5,5 v32.8 H0 Z" class="node-bkg node-no-border" id="node-5"/><line y2="37.8" x2="142.59375" y1="37.8" x1="0" class="node-line-2"/></g><g transform="translate(71.296875, 5)" text-anchor="middle" dominant-baseline="middle" alignment-baseline="middle" dy="1em"><g><rect class="background"/><text y="-10.1"><tspan dy="1.1em" y="-0.1em" x="0" class="text-outer-tspan"><tspan font-weight="normal" class="text-inner-tspan" font-style="normal">iCal4j</tspan><tspan font-weight="normal" class="text-inner-tspan" font-style="normal"> Template</tspan></tspan></text></g></g></g><g transform="translate(410.395462260033, 15)" class="mindmap-node section-2"><g><path d="M0 0 a25.940625,25.940625 0 0,1 43.234375,-17.29375&#10;      a60.528124999999996,60.528124999999996 1 0,1 69.175,-17.29375&#10;      a43.234375,43.234375 1 0,1 60.528124999999996,34.5875&#10;&#10;      a25.940625,25.940625 1 0,1 25.940625,13.229999999999999&#10;      a34.5875,34.5875 1 0,1 -25.940625,24.57&#10;&#10;      a43.234375,25.940625 1 0,1 -43.234375,25.940625&#10;      a60.528124999999996,60.528124999999996 1 0,1 -86.46875,0&#10;      a25.940625,25.940625 1 0,1 -43.234375,-25.940625&#10;&#10;      a25.940625,25.940625 1 0,1 -17.29375,-13.229999999999999&#10;      a34.5875,34.5875 1 0,1 17.29375,-24.57&#10;&#10;    H0 V0 Z" class="node-bkg node-cloud" id="node-6"/></g><g transform="translate(86.46875, 5)" text-anchor="middle" dominant-baseline="middle" alignment-baseline="middle" dy="1em"><g><rect class="background"/><text y="-10.1"><tspan dy="1.1em" y="-0.1em" x="0" class="text-outer-tspan"><tspan font-weight="normal" class="text-inner-tspan" font-style="normal">Creational</tspan><tspan font-weight="normal" class="text-inner-tspan" font-style="normal"> Patterns</tspan></tspan></text></g></g></g><g transform="translate(284.1563207490957, 151.37756744597357)" class="mindmap-node section-3"><g><path d="M0 32.8 v-27.799999999999997 q0,-5 5,-5 h141.828125 q5,0 5,5 v32.8 H0 Z" class="node-bkg node-no-border" id="node-7"/><line y2="37.8" x2="151.828125" y1="37.8" x1="0" class="node-line-3"/></g><g transform="translate(75.9140625, 5)" text-anchor="middle" dominant-baseline="middle" alignment-baseline="middle" dy="1em"><g><rect class="background"/><text y="-10.1"><tspan dy="1.1em" y="-0.1em" x="0" class="text-outer-tspan"><tspan font-weight="normal" class="text-inner-tspan" font-style="normal">iCal4j</tspan><tspan font-weight="normal" class="text-inner-tspan" font-style="normal"> Command</tspan></tspan></text></g></g></g><g transform="translate(177.69867026444763, 81.95242427977087)" class="mindmap-node section-3"><g><path d="M0 0 a24.73359375,24.73359375 0 0,1 41.22265625,-16.4890625&#10;      a57.711718749999996,57.711718749999996 1 0,1 65.95625,-16.4890625&#10;      a41.22265625,41.22265625 1 0,1 57.711718749999996,32.978125&#10;&#10;      a24.73359375,24.73359375 1 0,1 24.73359375,13.229999999999999&#10;      a32.978125,32.978125 1 0,1 -24.73359375,24.57&#10;&#10;      a41.22265625,24.73359375 1 0,1 -41.22265625,24.73359375&#10;      a57.711718749999996,57.711718749999996 1 0,1 -82.4453125,0&#10;      a24.73359375,24.73359375 1 0,1 -41.22265625,-24.73359375&#10;&#10;      a24.73359375,24.73359375 1 0,1 -16.4890625,-13.229999999999999&#10;      a32.978125,32.978125 1 0,1 16.4890625,-24.57&#10;&#10;    H0 V0 Z" class="node-bkg node-cloud" id="node-8"/></g><g transform="translate(82.4453125, 5)" text-anchor="middle" dominant-baseline="middle" alignment-baseline="middle" dy="1em"><g><rect class="background"/><text y="-10.1"><tspan dy="1.1em" y="-0.1em" x="0" class="text-outer-tspan"><tspan font-weight="normal" class="text-inner-tspan" font-style="normal">Command</tspan><tspan font-weight="normal" class="text-inner-tspan" font-style="normal"> Pattern</tspan></tspan></text></g></g></g><g transform="translate(353.54487431014786, 316.8222176288182)" class="mindmap-node section-4"><g><path d="M0 32.8 v-27.799999999999997 q0,-5 5,-5 h142.53125 q5,0 5,5 v32.8 H0 Z" class="node-bkg node-no-border" id="node-9"/><line y2="37.8" x2="152.53125" y1="37.8" x1="0" class="node-line-4"/></g><g transform="translate(76.265625, 5)" text-anchor="middle" dominant-baseline="middle" alignment-baseline="middle" dy="1em"><g><rect class="background"/><text y="-10.1"><tspan dy="1.1em" y="-0.1em" x="0" class="text-outer-tspan"><tspan font-weight="normal" class="text-inner-tspan" font-style="normal">iCal4j</tspan><tspan font-weight="normal" class="text-inner-tspan" font-style="normal"> Connector</tspan></tspan></text></g></g></g><g transform="translate(332.9454190980781, 402.9687739231366)" class="mindmap-node section-4"><g><path d="M0 0 a16.72734375,16.72734375 0 0,1 27.87890625,-11.1515625&#10;      a39.03046875,39.03046875 1 0,1 44.60625,-11.1515625&#10;      a27.87890625,27.87890625 1 0,1 39.03046875,22.303125&#10;&#10;      a16.72734375,16.72734375 1 0,1 16.72734375,13.229999999999999&#10;      a22.303125,22.303125 1 0,1 -16.72734375,24.57&#10;&#10;      a27.87890625,16.72734375 1 0,1 -27.87890625,16.72734375&#10;      a39.03046875,39.03046875 1 0,1 -55.7578125,0&#10;      a16.72734375,16.72734375 1 0,1 -27.87890625,-16.72734375&#10;&#10;      a16.72734375,16.72734375 1 0,1 -11.1515625,-13.229999999999999&#10;      a22.303125,22.303125 1 0,1 11.1515625,-24.57&#10;&#10;    H0 V0 Z" class="node-bkg node-cloud" id="node-10"/></g><g transform="translate(55.7578125, 5)" text-anchor="middle" dominant-baseline="middle" alignment-baseline="middle" dy="1em"><g><rect class="background"/><text y="-10.1"><tspan dy="1.1em" y="-0.1em" x="0" class="text-outer-tspan"><tspan font-weight="normal" class="text-inner-tspan" font-style="normal">Persistence</tspan></tspan></text></g></g></g><g transform="translate(549.8289071965734, 150.8550253577764)" class="mindmap-node section-5"><g><path d="M0 32.8 v-27.799999999999997 q0,-5 5,-5 h147.75 q5,0 5,5 v32.8 H0 Z" class="node-bkg node-no-border" id="node-11"/><line y2="37.8" x2="157.75" y1="37.8" x1="0" class="node-line-5"/></g><g transform="translate(78.875, 5)" text-anchor="middle" dominant-baseline="middle" alignment-baseline="middle" dy="1em"><g><rect class="background"/><text y="-10.1"><tspan dy="1.1em" y="-0.1em" x="0" class="text-outer-tspan"><tspan font-weight="normal" class="text-inner-tspan" font-style="normal">iCal4j</tspan><tspan font-weight="normal" class="text-inner-tspan" font-style="normal"> Integration</tspan></tspan></text></g></g></g><g transform="translate(640.8789338112448, 81.40475243701792)" class="mindmap-node section-5"><g><path d="M0 0 a26.873437499999998,26.873437499999998 0 0,1 44.7890625,-17.915625000000002&#10;      a62.7046875,62.7046875 1 0,1 71.66250000000001,-17.915625000000002&#10;      a44.7890625,44.7890625 1 0,1 62.7046875,35.831250000000004&#10;&#10;      a26.873437499999998,26.873437499999998 1 0,1 26.873437499999998,13.229999999999999&#10;      a35.831250000000004,35.831250000000004 1 0,1 -26.873437499999998,24.57&#10;&#10;      a44.7890625,26.873437499999998 1 0,1 -44.7890625,26.873437499999998&#10;      a62.7046875,62.7046875 1 0,1 -89.578125,0&#10;      a26.873437499999998,26.873437499999998 1 0,1 -44.7890625,-26.873437499999998&#10;&#10;      a26.873437499999998,26.873437499999998 1 0,1 -17.915625000000002,-13.229999999999999&#10;      a35.831250000000004,35.831250000000004 1 0,1 17.915625000000002,-24.57&#10;&#10;    H0 V0 Z" class="node-bkg node-cloud" id="node-12"/></g><g transform="translate(89.578125, 5)" text-anchor="middle" dominant-baseline="middle" alignment-baseline="middle" dy="1em"><g><rect class="background"/><text y="-10.1"><tspan dy="1.1em" y="-0.1em" x="0" class="text-outer-tspan"><tspan font-weight="normal" class="text-inner-tspan" font-style="normal">Integration</tspan><tspan font-weight="normal" class="text-inner-tspan" font-style="normal"> Patterns</tspan></tspan></text></g></g></g><g transform="translate(524.7724082417011, 291.7956170363028)" class="mindmap-node section-6"><g><path d="M0 32.8 v-27.799999999999997 q0,-5 5,-5 h125.8125 q5,0 5,5 v32.8 H0 Z" class="node-bkg node-no-border" id="node-13"/><line y2="37.8" x2="135.8125" y1="37.8" x1="0" class="node-line-6"/></g><g transform="translate(67.90625, 5)" text-anchor="middle" dominant-baseline="middle" alignment-baseline="middle" dy="1em"><g><rect class="background"/><text y="-10.1"><tspan dy="1.1em" y="-0.1em" x="0" class="text-outer-tspan"><tspan font-weight="normal" class="text-inner-tspan" font-style="normal">iCal4j</tspan><tspan font-weight="normal" class="text-inner-tspan" font-style="normal"> Streams</tspan></tspan></text></g></g></g><g transform="translate(540.6942649727204, 382.8585241032764)" class="mindmap-node section-6"><g><path d="M0 0 a24.028125,24.028125 0 0,1 40.046875,-16.01875&#10;      a56.065625,56.065625 1 0,1 64.075,-16.01875&#10;      a40.046875,40.046875 1 0,1 56.065625,32.0375&#10;&#10;      a24.028125,24.028125 1 0,1 24.028125,13.229999999999999&#10;      a32.0375,32.0375 1 0,1 -24.028125,24.57&#10;&#10;      a40.046875,24.028125 1 0,1 -40.046875,24.028125&#10;      a56.065625,56.065625 1 0,1 -80.09375,0&#10;      a24.028125,24.028125 1 0,1 -40.046875,-24.028125&#10;&#10;      a24.028125,24.028125 1 0,1 -16.01875,-13.229999999999999&#10;      a32.0375,32.0375 1 0,1 16.01875,-24.57&#10;&#10;    H0 V0 Z" class="node-bkg node-cloud" id="node-14"/></g><g transform="translate(80.09375, 5)" text-anchor="middle" dominant-baseline="middle" alignment-baseline="middle" dy="1em"><g><rect class="background"/><text y="-10.1"><tspan dy="1.1em" y="-0.1em" x="0" class="text-outer-tspan"><tspan font-weight="normal" class="text-inner-tspan" font-style="normal">Reactive</tspan><tspan font-weight="normal" class="text-inner-tspan" font-style="normal"> Streams</tspan></tspan></text></g></g></g><g transform="translate(654.1590355011452, 193.73628017311307)" class="mindmap-node section-7"><g><path d="M0 32.8 v-27.799999999999997 q0,-5 5,-5 h198.7265625 q5,0 5,5 v32.8 H0 Z" class="node-bkg node-no-border" id="node-15"/><line y2="37.8" x2="208.7265625" y1="37.8" x1="0" class="node-line-7"/></g><g transform="translate(104.36328125, 5)" text-anchor="middle" dominant-baseline="middle" alignment-baseline="middle" dy="1em"><g><rect class="background"/><text y="-10.1"><tspan dy="1.1em" y="-0.1em" x="0" class="text-outer-tspan"><tspan font-weight="normal" class="text-inner-tspan" font-style="normal">iCal4j</tspan><tspan font-weight="normal" class="text-inner-tspan" font-style="normal"> ZoneInfo</tspan><tspan font-weight="normal" class="text-inner-tspan" font-style="normal"> Outlook</tspan></tspan></text></g></g></g><g transform="translate(906.8853550196587, 242.0358838530171)" class="mindmap-node section-7"><g><path d="M0 0 a28.385156249999998,28.385156249999998 0 0,1 47.30859375,-18.923437500000002&#10;      a66.23203124999999,66.23203124999999 1 0,1 75.69375000000001,-18.923437500000002&#10;      a47.30859375,47.30859375 1 0,1 66.23203124999999,37.846875000000004&#10;&#10;      a28.385156249999998,28.385156249999998 1 0,1 28.385156249999998,13.229999999999999&#10;      a37.846875000000004,37.846875000000004 1 0,1 -28.385156249999998,24.57&#10;&#10;      a47.30859375,28.385156249999998 1 0,1 -47.30859375,28.385156249999998&#10;      a66.23203124999999,66.23203124999999 1 0,1 -94.6171875,0&#10;      a28.385156249999998,28.385156249999998 1 0,1 -47.30859375,-28.385156249999998&#10;&#10;      a28.385156249999998,28.385156249999998 1 0,1 -18.923437500000002,-13.229999999999999&#10;      a37.846875000000004,37.846875000000004 1 0,1 18.923437500000002,-24.57&#10;&#10;    H0 V0 Z" class="node-bkg node-cloud" id="node-16"/></g><g transform="translate(94.6171875, 5)" text-anchor="middle" dominant-baseline="middle" alignment-baseline="middle" dy="1em"><g><rect class="background"/><text y="-10.1"><tspan dy="1.1em" y="-0.1em" x="0" class="text-outer-tspan"><tspan font-weight="normal" class="text-inner-tspan" font-style="normal">Timezone</tspan><tspan font-weight="normal" class="text-inner-tspan" font-style="normal"> Definitions</tspan></tspan></text></g></g></g><g transform="translate(633.6638810581309, 249.10937451610786)" class="mindmap-node section-8"><g><path d="M0 32.8 v-27.799999999999997 q0,-5 5,-5 h134.546875 q5,0 5,5 v32.8 H0 Z" class="node-bkg node-no-border" id="node-17"/><line y2="37.8" x2="144.546875" y1="37.8" x1="0" class="node-line-8"/></g><g transform="translate(72.2734375, 5)" text-anchor="middle" dominant-baseline="middle" alignment-baseline="middle" dy="1em"><g><rect class="background"/><text y="-10.1"><tspan dy="1.1em" y="-0.1em" x="0" class="text-outer-tspan"><tspan font-weight="normal" class="text-inner-tspan" font-style="normal">iCal4j</tspan><tspan font-weight="normal" class="text-inner-tspan" font-style="normal"> Serializer</tspan></tspan></text></g></g></g><g transform="translate(757.9831681862421, 317.85638270894333)" class="mindmap-node section-8"><g><path d="M0 0 a14.77734375,14.77734375 0 0,1 24.62890625,-9.8515625&#10;      a34.48046875,34.48046875 1 0,1 39.40625,-9.8515625&#10;      a24.62890625,24.62890625 1 0,1 34.48046875,19.703125&#10;&#10;      a14.77734375,14.77734375 1 0,1 14.77734375,13.229999999999999&#10;      a19.703125,19.703125 1 0,1 -14.77734375,24.57&#10;&#10;      a24.62890625,14.77734375 1 0,1 -24.62890625,14.77734375&#10;      a34.48046875,34.48046875 1 0,1 -49.2578125,0&#10;      a14.77734375,14.77734375 1 0,1 -24.62890625,-14.77734375&#10;&#10;      a14.77734375,14.77734375 1 0,1 -9.8515625,-13.229999999999999&#10;      a19.703125,19.703125 1 0,1 9.8515625,-24.57&#10;&#10;    H0 V0 Z" class="node-bkg node-cloud" id="node-18"/></g><g transform="translate(49.2578125, 5)" text-anchor="middle" dominant-baseline="middle" alignment-baseline="middle" dy="1em"><g><rect class="background"/><text y="-10.1"><tspan dy="1.1em" y="-0.1em" x="0" class="text-outer-tspan"><tspan font-weight="normal" class="text-inner-tspan" font-style="normal">XML/JSON</tspan></tspan></text></g></g></g></g></svg>